<?xml version="1.0" encoding="UTF-8"?>
<svg width="27px" height="28px" viewBox="0 0 27 28" version="1.1" xmlns="http://www.w3.org/2000/svg" xmlns:xlink="http://www.w3.org/1999/xlink">
    <!-- Generator: Sketch 52.4 (67378) - http://www.bohemiancoding.com/sketch -->
    <title>google_logo</title>
    <desc>Created with Sketch.</desc>
    <defs>
        <path d="M26.6860465,11.4545455 L13.8139535,11.4545455 L13.8139535,16.8636364 L21.2232558,16.8636364 C20.5325581,20.3 17.644186,22.2727273 13.8139535,22.2727273 C9.29302326,22.2727273 5.65116279,18.5818182 5.65116279,14 C5.65116279,9.41818182 9.29302326,5.72727273 13.8139535,5.72727273 C15.7604651,5.72727273 17.5186047,6.42727273 18.9,7.57272727 L22.9186047,3.5 C20.4697674,1.33636364 17.3302326,0 13.8139535,0 C6.15348837,0 0,6.23636364 0,14 C0,21.7636364 6.15348837,28 13.8139535,28 C20.7209302,28 27,22.9090909 27,14 C27,13.1727273 26.8744186,12.2818182 26.6860465,11.4545455 Z" id="path-1"></path>
        <path d="M26.6860465,11.4545455 L13.8139535,11.4545455 L13.8139535,16.8636364 L21.2232558,16.8636364 C20.5325581,20.3 17.644186,22.2727273 13.8139535,22.2727273 C9.29302326,22.2727273 5.65116279,18.5818182 5.65116279,14 C5.65116279,9.41818182 9.29302326,5.72727273 13.8139535,5.72727273 C15.7604651,5.72727273 17.5186047,6.42727273 18.9,7.57272727 L22.9186047,3.5 C20.4697674,1.33636364 17.3302326,0 13.8139535,0 C6.15348837,0 0,6.23636364 0,14 C0,21.7636364 6.15348837,28 13.8139535,28 C20.7209302,28 27,22.9090909 27,14 C27,13.1727273 26.8744186,12.2818182 26.6860465,11.4545455 Z" id="path-3"></path>
        <path d="M26.6860465,11.4545455 L13.8139535,11.4545455 L13.8139535,16.8636364 L21.2232558,16.8636364 C20.5325581,20.3 17.644186,22.2727273 13.8139535,22.2727273 C9.29302326,22.2727273 5.65116279,18.5818182 5.65116279,14 C5.65116279,9.41818182 9.29302326,5.72727273 13.8139535,5.72727273 C15.7604651,5.72727273 17.5186047,6.42727273 18.9,7.57272727 L22.9186047,3.5 C20.4697674,1.33636364 17.3302326,0 13.8139535,0 C6.15348837,0 0,6.23636364 0,14 C0,21.7636364 6.15348837,28 13.8139535,28 C20.7209302,28 27,22.9090909 27,14 C27,13.1727273 26.8744186,12.2818182 26.6860465,11.4545455 Z" id="path-5"></path>
        <path d="M26.6860465,11.4545455 L13.8139535,11.4545455 L13.8139535,16.8636364 L21.2232558,16.8636364 C20.5325581,20.3 17.644186,22.2727273 13.8139535,22.2727273 C9.29302326,22.2727273 5.65116279,18.5818182 5.65116279,14 C5.65116279,9.41818182 9.29302326,5.72727273 13.8139535,5.72727273 C15.7604651,5.72727273 17.5186047,6.42727273 18.9,7.57272727 L22.9186047,3.5 C20.4697674,1.33636364 17.3302326,0 13.8139535,0 C6.15348837,0 0,6.23636364 0,14 C0,21.7636364 6.15348837,28 13.8139535,28 C20.7209302,28 27,22.9090909 27,14 C27,13.1727273 26.8744186,12.2818182 26.6860465,11.4545455 Z" id="path-7"></path>
    </defs>
    <g id="insight-mobile" stroke="none" stroke-width="1" fill="none" fill-rule="evenodd">
        <g id="Mobile---login" transform="translate(-38.000000, -444.000000)">
            <g id="Body" transform="translate(0.000000, 64.000000)">
                <g id="Login" transform="translate(7.000000, 366.000000)">
                    <g id="Group" transform="translate(31.000000, 14.000000)">
                        <g id="google_logo">
                            <g id="Clipped">
                                <mask id="mask-2" fill="white">
                                    <use xlink:href="#path-1"></use>
                                </mask>
                                <g id="a"></g>
                                <polygon id="Path" fill="#2B2B2B" mask="url(#mask-2)" points="-1.25581395 22.2727273 -1.25581395 5.72727273 9.41860465 14"></polygon>
                            </g>
                            <g id="Clipped">
                                <mask id="mask-4" fill="white">
                                    <use xlink:href="#path-3"></use>
                                </mask>
                                <g id="a"></g>
                                <polygon id="Path" fill="#2B2B2B" mask="url(#mask-4)" points="-1.25581395 5.72727273 9.41860465 14 13.8139535 10.1181818 28.8837209 7.63636364 28.8837209 -1.27272727 -1.25581395 -1.27272727"></polygon>
                            </g>
                            <g id="Clipped">
                                <mask id="mask-6" fill="white">
                                    <use xlink:href="#path-5"></use>
                                </mask>
                                <g id="a"></g>
                                <polygon id="Path" fill="#2B2B2B" mask="url(#mask-6)" points="-1.25581395 22.2727273 17.5813953 7.63636364 22.5418605 8.27272727 28.8837209 -1.27272727 28.8837209 29.2727273 -1.25581395 29.2727273"></polygon>
                            </g>
                            <g id="Clipped">
                                <mask id="mask-8" fill="white">
                                    <use xlink:href="#path-7"></use>
                                </mask>
                                <g id="a"></g>
                                <polygon id="Path" fill="#2B2B2B" mask="url(#mask-8)" points="28.8837209 29.2727273 9.41860465 14 6.90697674 12.0909091 28.8837209 5.72727273"></polygon>
                            </g>
                        </g>
                    </g>
                </g>
            </g>
        </g>
    </g>
</svg>