<?xml version="1.0" encoding="UTF-8"?>
<svg width="71px" height="24px" viewBox="0 0 71 24" version="1.1" xmlns="http://www.w3.org/2000/svg" xmlns:xlink="http://www.w3.org/1999/xlink">
    <!-- Generator: Sketch 52.4 (67378) - http://www.bohemiancoding.com/sketch -->
    <title>Title</title>
    <desc>Created with Sketch.</desc>
    <g id="insight-mobile" stroke="none" stroke-width="1" fill="none" fill-rule="evenodd">
        <g id="Mobile---landing-page" transform="translate(-125.000000, -16.000000)">
            <g id="Navbar">
                <rect id="Rectangle" fill="#FCB853" x="0" y="0" width="320" height="56"></rect>
                <g id="Title" transform="translate(125.000000, 16.000000)">
                    <rect id="Rectangle" fill="#FCB853" x="0" y="0" width="71" height="24"></rect>
                    <path d="M2.04,19 C1.906666,19 1.7933338,18.9533338 1.7,18.86 C1.6066662,18.7666662 1.56,18.653334 1.56,18.52 L1.56,5.48 C1.56,5.3333326 1.6066662,5.2166671 1.7,5.13 C1.7933338,5.0433329 1.906666,5 2.04,5 L3.96,5 C4.1066674,5 4.2233329,5.0433329 4.31,5.13 C4.3966671,5.2166671 4.44,5.3333326 4.44,5.48 L4.44,18.52 C4.44,18.653334 4.3966671,18.7666662 4.31,18.86 C4.2233329,18.9533338 4.1066674,19 3.96,19 L2.04,19 Z M8.0460628,19 C7.9127288,19 7.7993966,18.9533338 7.7060628,18.86 C7.612729,18.7666662 7.5660628,18.653334 7.5660628,18.52 L7.5660628,9.08 C7.5660628,8.9333326 7.612729,8.8166671 7.7060628,8.73 C7.7993966,8.6433329 7.9127288,8.6 8.0460628,8.6 L9.7060628,8.6 C9.8527302,8.6 9.9693957,8.6433329 10.0560628,8.73 C10.1427299,8.8166671 10.1860628,8.9333326 10.1860628,9.08 L10.1860628,9.9 C10.9994002,8.899995 12.1127224,8.4 13.5260628,8.4 C14.7527356,8.4 15.7260592,8.799996 16.4460628,9.6 C17.1660664,10.400004 17.5260628,11.499993 17.5260628,12.9 L17.5260628,18.52 C17.5260628,18.653334 17.4827299,18.7666662 17.3960628,18.86 C17.3093957,18.9533338 17.1927302,19 17.0460628,19 L15.2460628,19 C15.1127288,19 14.9993966,18.9533338 14.9060628,18.86 C14.812729,18.7666662 14.7660628,18.653334 14.7660628,18.52 L14.7660628,13.02 C14.7660628,12.2466628 14.5760647,11.6433355 14.1960628,11.21 C13.8160609,10.7766645 13.272733,10.56 12.5660628,10.56 C11.8860594,10.56 11.3393982,10.7799978 10.9260628,11.22 C10.5127274,11.6600022 10.3060628,12.2599962 10.3060628,13.02 L10.3060628,18.52 C10.3060628,18.653334 10.2627299,18.7666662 10.1760628,18.86 C10.0893957,18.9533338 9.9727302,19 9.8260628,19 L8.0460628,19 Z M24.2721256,19.2 C23.2587872,19.2 22.412129,19.0466682 21.7321256,18.74 C21.0521222,18.4333318 20.5487939,18.0766687 20.2221256,17.67 C19.8954573,17.2633313 19.7321256,16.9133348 19.7321256,16.62 C19.7321256,16.486666 19.7754585,16.3800004 19.8621256,16.3 C19.9487927,16.2199996 20.052125,16.18 20.1721256,16.18 L21.8121256,16.18 C21.9187928,16.18 22.0121252,16.2333328 22.0921256,16.34 C22.1587926,16.3933336 22.3087911,16.519999 22.5421256,16.72 C22.7754601,16.920001 23.0421241,17.0766661 23.3421256,17.19 C23.6421271,17.3033339 23.9721238,17.36 24.3321256,17.36 C24.8654616,17.36 25.2987906,17.2566677 25.6321256,17.05 C25.9654606,16.8433323 26.1321256,16.5466686 26.1321256,16.16 C26.1321256,15.893332 26.0554597,15.6766675 25.9021256,15.51 C25.7487915,15.3433325 25.4754609,15.1900007 25.0821256,15.05 C24.6887903,14.9099993 24.0987962,14.7533342 23.3121256,14.58 C22.1787866,14.3399988 21.3421283,13.9733358 20.8021256,13.48 C20.2621229,12.9866642 19.9921256,12.3333374 19.9921256,11.52 C19.9921256,10.986664 20.152124,10.4833357 20.4721256,10.01 C20.7921272,9.5366643 21.2687891,9.1500015 21.9021256,8.85 C22.5354621,8.5499985 23.2921212,8.4 24.1721256,8.4 C25.0787968,8.4 25.858789,8.5433319 26.5121256,8.83 C27.1654622,9.1166681 27.6621239,9.459998 28.0021256,9.86 C28.3421273,10.260002 28.5121256,10.6133318 28.5121256,10.92 C28.5121256,11.0400006 28.4687927,11.1433329 28.3821256,11.23 C28.2954585,11.3166671 28.1921262,11.36 28.0721256,11.36 L26.5721256,11.36 C26.4254582,11.36 26.312126,11.3066672 26.2321256,11.2 C26.1387918,11.133333 25.9887933,11.0100009 25.7821256,10.83 C25.5754579,10.6499991 25.3454602,10.5066672 25.0921256,10.4 C24.838791,10.2933328 24.5321274,10.24 24.1721256,10.24 C23.6787898,10.24 23.2987936,10.3466656 23.0321256,10.56 C22.7654576,10.7733344 22.6321256,11.0533316 22.6321256,11.4 C22.6321256,11.6400012 22.6954583,11.8399992 22.8221256,12 C22.9487929,12.1600008 23.205457,12.3099993 23.5921256,12.45 C23.9787942,12.5900007 24.5587884,12.7333326 25.3321256,12.88 C27.7321376,13.346669 28.9321256,14.3933252 28.9321256,16.02 C28.9321256,16.9666714 28.5221297,17.7333304 27.7021256,18.32 C26.8821215,18.9066696 25.7387996,19.2 24.2721256,19.2 Z M31.6181884,6.9 C31.4848544,6.9 31.3715222,6.8533338 31.2781884,6.76 C31.1848546,6.6666662 31.1381884,6.553334 31.1381884,6.42 L31.1381884,4.96 C31.1381884,4.8133326 31.1848546,4.6933338 31.2781884,4.6 C31.3715222,4.5066662 31.4848544,4.46 31.6181884,4.46 L33.4581884,4.46 C33.6048558,4.46 33.7248546,4.5066662 33.8181884,4.6 C33.9115222,4.6933338 33.9581884,4.8133326 33.9581884,4.96 L33.9581884,6.42 C33.9581884,6.553334 33.9081889,6.6666662 33.8081884,6.76 C33.7081879,6.8533338 33.5915224,6.9 33.4581884,6.9 L31.6181884,6.9 Z M31.6981884,19 C31.5648544,19 31.4515222,18.9533338 31.3581884,18.86 C31.2648546,18.7666662 31.2181884,18.653334 31.2181884,18.52 L31.2181884,9.08 C31.2181884,8.9333326 31.2648546,8.8166671 31.3581884,8.73 C31.4515222,8.6433329 31.5648544,8.6 31.6981884,8.6 L33.3981884,8.6 C33.5315224,8.6 33.6448546,8.6466662 33.7381884,8.74 C33.8315222,8.8333338 33.8781884,8.946666 33.8781884,9.08 L33.8781884,18.52 C33.8781884,18.653334 33.8315222,18.7666662 33.7381884,18.86 C33.6448546,18.9533338 33.5315224,19 33.3981884,19 L31.6981884,19 Z M41.4642512,23.4 C40.2775786,23.4 39.3175882,23.2033353 38.5842512,22.81 C37.8509142,22.4166647 37.3309194,21.9666692 37.0242512,21.46 C36.717583,20.9533308 36.5642512,20.5200018 36.5642512,20.16 C36.5642512,20.026666 36.6109174,19.9166671 36.7042512,19.83 C36.797585,19.7433329 36.9109172,19.7 37.0442512,19.7 L38.8242512,19.7 C38.9442518,19.7 39.0475841,19.7299997 39.1342512,19.79 C39.2209183,19.8500003 39.2909176,19.9599992 39.3442512,20.12 C39.4909186,20.4666684 39.7109164,20.7633321 40.0042512,21.01 C40.297586,21.2566679 40.7509148,21.38 41.3642512,21.38 C42.1642552,21.38 42.750916,21.2033351 43.1242512,20.85 C43.4975864,20.4966649 43.6842512,19.8800044 43.6842512,19 L43.6842512,17.64 C42.9642476,18.4933376 41.9442578,18.92 40.6242512,18.92 C39.2375776,18.92 38.1942547,18.5000042 37.4942512,17.66 C36.7942477,16.8199958 36.4175848,15.6733406 36.3642512,14.22 L36.3442512,13.68 L36.3642512,13.14 C36.4175848,11.7133262 36.797581,10.566671 37.5042512,9.7 C38.2109214,8.833329 39.250911,8.4 40.6242512,8.4 C41.3309214,8.4 41.9509152,8.533332 42.4842512,8.8 C43.0175872,9.066668 43.4575828,9.4266644 43.8042512,9.88 L43.8042512,9.1 C43.8042512,8.9533326 43.8542507,8.8333338 43.9542512,8.74 C44.0542517,8.6466662 44.1709172,8.6 44.3042512,8.6 L45.9442512,8.6 C46.0775852,8.6 46.1909174,8.6466662 46.2842512,8.74 C46.377585,8.8333338 46.4242512,8.9533326 46.4242512,9.1 L46.4442512,18.74 C46.4442512,20.2200074 46.030922,21.3666626 45.2042512,22.18 C44.3775804,22.9933374 43.1309262,23.4 41.4642512,23.4 Z M41.3842512,16.8 C42.1309216,16.8 42.690916,16.5600024 43.0642512,16.08 C43.4375864,15.5999976 43.644251,15.0133368 43.6842512,14.32 C43.6975846,14.2133328 43.7042512,14.0000016 43.7042512,13.68 C43.7042512,13.3599984 43.6975846,13.1466672 43.6842512,13.04 C43.644251,12.3466632 43.4375864,11.7600024 43.0642512,11.28 C42.690916,10.7999976 42.1309216,10.56 41.3842512,10.56 C39.944244,10.56 39.1842516,11.4399912 39.1042512,13.2 L39.0842512,13.68 C39.0842512,15.7600104 39.8509102,16.8 41.3842512,16.8 Z M49.830314,19 C49.69698,19 49.5836478,18.9533338 49.490314,18.86 C49.3969802,18.7666662 49.350314,18.653334 49.350314,18.52 L49.350314,5.28 C49.350314,5.1333326 49.3969802,5.0166671 49.490314,4.93 C49.5836478,4.8433329 49.69698,4.8 49.830314,4.8 L51.650314,4.8 C51.7969814,4.8 51.9136469,4.8433329 52.000314,4.93 C52.0869811,5.0166671 52.130314,5.1333326 52.130314,5.28 L52.130314,9.84 C52.930318,8.8799952 54.0036406,8.4 55.350314,8.4 C56.5769868,8.4 57.556977,8.8033293 58.290314,9.61 C59.023651,10.4166707 59.390314,11.5133264 59.390314,12.9 L59.390314,18.52 C59.390314,18.653334 59.3469811,18.7666662 59.260314,18.86 C59.1736469,18.9533338 59.0569814,19 58.910314,19 L57.090314,19 C56.9436466,19 56.8236478,18.9533338 56.730314,18.86 C56.6369802,18.7666662 56.590314,18.653334 56.590314,18.52 L56.590314,13.02 C56.590314,12.2466628 56.4003159,11.6433355 56.020314,11.21 C55.6403121,10.7766645 55.0969842,10.56 54.390314,10.56 C53.7103106,10.56 53.1636494,10.7799978 52.750314,11.22 C52.3369786,11.6600022 52.130314,12.2599962 52.130314,13.02 L52.130314,18.52 C52.130314,18.653334 52.0869811,18.7666662 52.000314,18.86 C51.9136469,18.9533338 51.7969814,19 51.650314,19 L49.830314,19 Z M66.7763768,19 C65.5630374,19 64.6497132,18.6833365 64.0363768,18.05 C63.4230404,17.4166635 63.1163768,16.4866728 63.1163768,15.26 L63.1163768,10.74 L61.5363768,10.74 C61.4030428,10.74 61.2897106,10.6933338 61.1963768,10.6 C61.103043,10.5066662 61.0563768,10.393334 61.0563768,10.26 L61.0563768,9.08 C61.0563768,8.946666 61.103043,8.8333338 61.1963768,8.74 C61.2897106,8.6466662 61.4030428,8.6 61.5363768,8.6 L63.1163768,8.6 L63.1163768,5.28 C63.1163768,5.1333326 63.163043,5.0166671 63.2563768,4.93 C63.3497106,4.8433329 63.4630428,4.8 63.5963768,4.8 L65.2563768,4.8 C65.4030442,4.8 65.5197097,4.8433329 65.6063768,4.93 C65.6930439,5.0166671 65.7363768,5.1333326 65.7363768,5.28 L65.7363768,8.6 L68.2363768,8.6 C68.3697108,8.6 68.483043,8.6466662 68.5763768,8.74 C68.6697106,8.8333338 68.7163768,8.946666 68.7163768,9.08 L68.7163768,10.26 C68.7163768,10.393334 68.6697106,10.5066662 68.5763768,10.6 C68.483043,10.6933338 68.3697108,10.74 68.2363768,10.74 L65.7363768,10.74 L65.7363768,15.04 C65.7363768,15.6133362 65.8363758,16.0466652 66.0363768,16.34 C66.2363778,16.6333348 66.5630412,16.78 67.0163768,16.78 L68.4163768,16.78 C68.5630442,16.78 68.6797097,16.8233329 68.7663768,16.91 C68.8530439,16.9966671 68.8963768,17.1133326 68.8963768,17.26 L68.8963768,18.52 C68.8963768,18.653334 68.8530439,18.7666662 68.7663768,18.86 C68.6797097,18.9533338 68.5630442,19 68.4163768,19 L66.7763768,19 Z" id="Insight" fill="#2B2B2B"></path>
                    <rect id="Rectangle" fill="#F8BC61" x="30" y="4" width="6" height="4"></rect>
                </g>
            </g>
        </g>
    </g>
</svg>