<?xml version="1.0" encoding="UTF-8"?>
<svg width="247px" height="170px" viewBox="0 0 247 170" version="1.1" xmlns="http://www.w3.org/2000/svg" xmlns:xlink="http://www.w3.org/1999/xlink">
    <!-- Generator: Sketch 52.4 (67378) - http://www.bohemiancoding.com/sketch -->
    <title>Login logo</title>
    <desc>Created with Sketch.</desc>
    <g id="insight-mobile" stroke="none" stroke-width="1" fill="none" fill-rule="evenodd">
        <g id="Mobile---login" transform="translate(-37.000000, -133.000000)">
            <g id="Body" transform="translate(0.000000, 56.000000)">
                <g id="Login-logo" transform="translate(37.000000, 77.000000)">
                    <g id="Envelop" transform="translate(70.231274, 45.687223) rotate(-5.000000) translate(-70.231274, -45.687223) translate(3.231274, 5.687223)" stroke-width="2">
                        <rect id="Rectangle" stroke="#2B2B2B" x="1" y="1" width="132" height="78" rx="2"></rect>
                        <path d="M67,55 L123,9" id="Line-2" stroke="#FCB853" stroke-linecap="square"></path>
                        <path d="M11,55 L67,9" id="Line-2" stroke="#FCB853" stroke-linecap="square" transform="translate(39.000000, 32.000000) scale(-1, 1) translate(-39.000000, -32.000000) "></path>
                    </g>
                    <rect id="Rectangle" fill="#FCB853" x="120" y="131" width="127" height="39"></rect>
                    <path d="M162.214363,86.5 C162.007695,86.5 161.83203,86.4276674 161.687363,86.283 C161.542695,86.1383326 161.470363,85.9626677 161.470363,85.756 L161.470363,65.544 C161.470363,65.3166655 161.542695,65.135834 161.687363,65.0015 C161.83203,64.867166 162.007695,64.8 162.214363,64.8 L165.128363,64.8 C165.355697,64.8 165.536529,64.867166 165.670863,65.0015 C165.805197,65.135834 165.872363,65.3166655 165.872363,65.544 L165.872363,82.78 L175.699363,82.78 C175.926697,82.78 176.112695,82.8523326 176.257363,82.997 C176.40203,83.1416674 176.474363,83.3173323 176.474363,83.524 L176.474363,85.756 C176.474363,85.9626677 176.40203,86.1383326 176.257363,86.283 C176.112695,86.4276674 175.926697,86.5 175.699363,86.5 L162.214363,86.5 Z M186.022363,86.81 C183.583684,86.81 181.703036,86.1900062 180.380363,84.95 C179.057689,83.7099938 178.344697,81.9946776 178.241363,79.804 L178.210363,78.44 L178.241363,77.076 C178.344697,74.9059891 179.068023,73.1958396 180.411363,71.9455 C181.754703,70.6951604 183.625017,70.07 186.022363,70.07 C188.399041,70.07 190.259023,70.6951604 191.602363,71.9455 C192.945703,73.1958396 193.669029,74.9059891 193.772363,77.076 C193.79303,77.3240012 193.803363,77.7786634 193.803363,78.44 C193.803363,79.1013366 193.79303,79.5559988 193.772363,79.804 C193.669029,81.9946776 192.956036,83.7099938 191.633363,84.95 C190.310689,86.1900062 188.440375,86.81 186.022363,86.81 Z M186.022363,83.679 C187.117702,83.679 187.95986,83.3380034 188.548863,82.656 C189.137866,81.9739966 189.453029,80.9716733 189.494363,79.649 C189.51503,79.4423323 189.525363,79.0393363 189.525363,78.44 C189.525363,77.8406637 189.51503,77.4376677 189.494363,77.231 C189.453029,75.9083267 189.132699,74.9008368 188.533363,74.2085 C187.934026,73.5161632 187.097035,73.17 186.022363,73.17 C184.927024,73.17 184.079699,73.5161632 183.480363,74.2085 C182.881026,74.9008368 182.560696,75.9083267 182.519363,77.231 L182.488363,78.44 L182.519363,79.649 C182.560696,80.9716733 182.881026,81.9739966 183.480363,82.656 C184.079699,83.3380034 184.927024,83.679 186.022363,83.679 Z M204.529363,93.32 C202.69002,93.32 201.202035,93.0151697 200.065363,92.4055 C198.92869,91.7958303 198.122698,91.0983373 197.647363,90.313 C197.172027,89.5276627 196.934363,88.8560028 196.934363,88.298 C196.934363,88.0913323 197.006695,87.920834 197.151363,87.7865 C197.29603,87.652166 197.471695,87.585 197.678363,87.585 L200.437363,87.585 C200.623364,87.585 200.783529,87.6314995 200.917863,87.7245 C201.052197,87.8175005 201.160696,87.9879988 201.243363,88.236 C201.470697,88.773336 201.811694,89.2331648 202.266363,89.6155 C202.721032,89.9978352 203.423691,90.189 204.374363,90.189 C205.614369,90.189 206.523693,89.9151694 207.102363,89.3675 C207.681032,88.8198306 207.970363,87.8640068 207.970363,86.5 L207.970363,84.392 C206.854357,85.7146733 205.273373,86.376 203.227363,86.376 C201.078019,86.376 199.460868,85.7250065 198.375863,84.423 C197.290857,83.1209935 196.70703,81.3436779 196.624363,79.091 L196.593363,78.254 L196.624363,77.417 C196.70703,75.2056556 197.296024,73.4283401 198.391363,72.085 C199.486702,70.7416599 201.098685,70.07 203.227363,70.07 C204.322702,70.07 205.283692,70.2766646 206.110363,70.69 C206.937034,71.1033354 207.619027,71.6613298 208.156363,72.364 L208.156363,71.155 C208.156363,70.9276655 208.233862,70.7416674 208.388863,70.597 C208.543864,70.4523326 208.724695,70.38 208.931363,70.38 L211.473363,70.38 C211.68003,70.38 211.855695,70.4523326 212.000363,70.597 C212.14503,70.7416674 212.217363,70.9276655 212.217363,71.155 L212.248363,86.097 C212.248363,88.3910115 211.607702,90.168327 210.326363,91.429 C209.045023,92.689673 207.112709,93.32 204.529363,93.32 Z M204.405363,83.09 C205.562702,83.09 206.430693,82.7180037 207.009363,81.974 C207.588032,81.2299963 207.908362,80.320672 207.970363,79.246 C207.99103,79.0806658 208.001363,78.7500025 208.001363,78.254 C208.001363,77.7579975 207.99103,77.4273342 207.970363,77.262 C207.908362,76.187328 207.588032,75.2780037 207.009363,74.534 C206.430693,73.7899963 205.562702,73.418 204.405363,73.418 C202.173352,73.418 200.995363,74.7819864 200.871363,77.51 L200.840363,78.254 C200.840363,81.4780161 202.028684,83.09 204.405363,83.09 Z M216.960363,67.745 C216.753695,67.745 216.57803,67.6726674 216.433363,67.528 C216.288695,67.3833326 216.216363,67.2076677 216.216363,67.001 L216.216363,64.738 C216.216363,64.5106655 216.288695,64.3246674 216.433363,64.18 C216.57803,64.0353326 216.753695,63.963 216.960363,63.963 L219.812363,63.963 C220.039697,63.963 220.225695,64.0353326 220.370363,64.18 C220.51503,64.3246674 220.587363,64.5106655 220.587363,64.738 L220.587363,67.001 C220.587363,67.2076677 220.509864,67.3833326 220.354863,67.528 C220.199862,67.6726674 220.01903,67.745 219.812363,67.745 L216.960363,67.745 Z M217.084363,86.5 C216.877695,86.5 216.70203,86.4276674 216.557363,86.283 C216.412695,86.1383326 216.340363,85.9626677 216.340363,85.756 L216.340363,71.124 C216.340363,70.8966655 216.412695,70.715834 216.557363,70.5815 C216.70203,70.447166 216.877695,70.38 217.084363,70.38 L219.719363,70.38 C219.92603,70.38 220.101695,70.4523326 220.246363,70.597 C220.39103,70.7416674 220.463363,70.9173323 220.463363,71.124 L220.463363,85.756 C220.463363,85.9626677 220.39103,86.1383326 220.246363,86.283 C220.101695,86.4276674 219.92603,86.5 219.719363,86.5 L217.084363,86.5 Z M225.299363,86.5 C225.092695,86.5 224.91703,86.4276674 224.772363,86.283 C224.627695,86.1383326 224.555363,85.9626677 224.555363,85.756 L224.555363,71.124 C224.555363,70.8966655 224.627695,70.715834 224.772363,70.5815 C224.91703,70.447166 225.092695,70.38 225.299363,70.38 L227.872363,70.38 C228.099697,70.38 228.280529,70.447166 228.414863,70.5815 C228.549197,70.715834 228.616363,70.8966655 228.616363,71.124 L228.616363,72.395 C229.877036,70.8449922 231.602685,70.07 233.793363,70.07 C235.694706,70.07 237.203357,70.6899938 238.319363,71.93 C239.435368,73.1700062 239.993363,74.8749892 239.993363,77.045 L239.993363,85.756 C239.993363,85.9626677 239.926197,86.1383326 239.791863,86.283 C239.657529,86.4276674 239.476697,86.5 239.249363,86.5 L236.459363,86.5 C236.252695,86.5 236.07703,86.4276674 235.932363,86.283 C235.787695,86.1383326 235.715363,85.9626677 235.715363,85.756 L235.715363,77.231 C235.715363,76.0323273 235.420866,75.09717 234.831863,74.4255 C234.24286,73.75383 233.400702,73.418 232.305363,73.418 C231.251357,73.418 230.404033,73.7589966 229.763363,74.441 C229.122693,75.1230034 228.802363,76.0529941 228.802363,77.231 L228.802363,85.756 C228.802363,85.9626677 228.735197,86.1383326 228.600863,86.283 C228.466529,86.4276674 228.285697,86.5 228.058363,86.5 L225.299363,86.5 Z M54.4583628,123.5 C52.5776867,123.5 51.1620342,123.009172 50.2113628,122.0275 C49.2606913,121.045828 48.7853628,119.604343 48.7853628,117.703 L48.7853628,110.697 L46.3363628,110.697 C46.1296951,110.697 45.9540301,110.624667 45.8093628,110.48 C45.6646954,110.335333 45.5923628,110.159668 45.5923628,109.953 L45.5923628,108.124 C45.5923628,107.917332 45.6646954,107.741667 45.8093628,107.597 C45.9540301,107.452333 46.1296951,107.38 46.3363628,107.38 L48.7853628,107.38 L48.7853628,102.234 C48.7853628,102.006666 48.8576954,101.825834 49.0023628,101.6915 C49.1470301,101.557166 49.3226951,101.49 49.5293628,101.49 L52.1023628,101.49 C52.3296972,101.49 52.5105288,101.557166 52.6448628,101.6915 C52.7791968,101.825834 52.8463628,102.006666 52.8463628,102.234 L52.8463628,107.38 L56.7213628,107.38 C56.9280305,107.38 57.1036954,107.452333 57.2483628,107.597 C57.3930301,107.741667 57.4653628,107.917332 57.4653628,108.124 L57.4653628,109.953 C57.4653628,110.159668 57.3930301,110.335333 57.2483628,110.48 C57.1036954,110.624667 56.9280305,110.697 56.7213628,110.697 L52.8463628,110.697 L52.8463628,117.362 C52.8463628,118.250671 53.0013612,118.922331 53.3113628,119.377 C53.6213643,119.831669 54.1276926,120.059 54.8303628,120.059 L57.0003628,120.059 C57.2276972,120.059 57.4085288,120.126166 57.5428628,120.2605 C57.6771968,120.394834 57.7443628,120.575666 57.7443628,120.803 L57.7443628,122.756 C57.7443628,122.962668 57.6771968,123.138333 57.5428628,123.283 C57.4085288,123.427667 57.2276972,123.5 57.0003628,123.5 L54.4583628,123.5 Z M67.6643628,123.81 C65.2256839,123.81 63.345036,123.190006 62.0223628,121.95 C60.6996895,120.709994 59.9866966,118.994678 59.8833628,116.804 L59.8523628,115.44 L59.8833628,114.076 C59.9866966,111.905989 60.7100227,110.19584 62.0533628,108.9455 C63.3967028,107.69516 65.2670174,107.07 67.6643628,107.07 C70.0410413,107.07 71.9010227,107.69516 73.2443628,108.9455 C74.5877028,110.19584 75.3110289,111.905989 75.4143628,114.076 C75.4350295,114.324001 75.4453628,114.778663 75.4453628,115.44 C75.4453628,116.101337 75.4350295,116.555999 75.4143628,116.804 C75.3110289,118.994678 74.598036,120.709994 73.2753628,121.95 C71.9526895,123.190006 70.0823748,123.81 67.6643628,123.81 Z M67.6643628,120.679 C68.7597016,120.679 69.6018598,120.338003 70.1908628,119.656 C70.7798657,118.973997 71.0950292,117.971673 71.1363628,116.649 C71.1570295,116.442332 71.1673628,116.039336 71.1673628,115.44 C71.1673628,114.840664 71.1570295,114.437668 71.1363628,114.231 C71.0950292,112.908327 70.7746991,111.900837 70.1753628,111.2085 C69.5760264,110.516163 68.7390348,110.17 67.6643628,110.17 C66.5690239,110.17 65.7216991,110.516163 65.1223628,111.2085 C64.5230264,111.900837 64.2026963,112.908327 64.1613628,114.231 L64.1303628,115.44 L64.1613628,116.649 C64.2026963,117.971673 64.5230264,118.973997 65.1223628,119.656 C65.7216991,120.338003 66.5690239,120.679 67.6643628,120.679 Z M92.0923628,123.81 C90.5216882,123.81 89.209368,123.572336 88.1553628,123.097 C87.1013575,122.621664 86.3211986,122.068836 85.8148628,121.4385 C85.3085269,120.808164 85.0553628,120.265669 85.0553628,119.811 C85.0553628,119.604332 85.1225288,119.439001 85.2568628,119.315 C85.3911968,119.190999 85.5513618,119.129 85.7373628,119.129 L88.2793628,119.129 C88.4446969,119.129 88.5893621,119.211666 88.7133628,119.377 C88.8166966,119.459667 89.0491943,119.655998 89.4108628,119.966 C89.7725312,120.276002 90.1858604,120.518832 90.6508628,120.6945 C91.1158651,120.870168 91.62736,120.958 92.1853628,120.958 C93.0120336,120.958 93.6836935,120.797835 94.2003628,120.4775 C94.717032,120.157165 94.9753628,119.697336 94.9753628,119.098 C94.9753628,118.684665 94.8565306,118.348835 94.6188628,118.0905 C94.3811949,117.832165 93.9575325,117.594501 93.3478628,117.3775 C92.738193,117.160499 91.8237022,116.917668 90.6043628,116.649 C88.8476873,116.276998 87.5508669,115.70867 86.7138628,114.944 C85.8768586,114.17933 85.4583628,113.166673 85.4583628,111.906 C85.4583628,111.079329 85.7063603,110.29917 86.2023628,109.5655 C86.6983652,108.83183 87.4371912,108.232502 88.4188628,107.7675 C89.4005343,107.302498 90.5733559,107.07 91.9373628,107.07 C93.3427031,107.07 94.551691,107.292164 95.5643628,107.7365 C96.5770345,108.180836 97.3468601,108.712997 97.8738628,109.333 C98.4008654,109.953003 98.6643628,110.500664 98.6643628,110.976 C98.6643628,111.162001 98.5971968,111.322166 98.4628628,111.4565 C98.3285288,111.590834 98.1683637,111.658 97.9823628,111.658 L95.6573628,111.658 C95.4300283,111.658 95.2543634,111.575334 95.1303628,111.41 C94.9856954,111.306666 94.7531977,111.115501 94.4328628,110.8365 C94.1125278,110.557499 93.7560314,110.335334 93.3633628,110.17 C92.9706941,110.004666 92.4953655,109.922 91.9373628,109.922 C91.1726923,109.922 90.5836982,110.087332 90.1703628,110.418 C89.7570274,110.748668 89.5503628,111.182664 89.5503628,111.72 C89.5503628,112.092002 89.6485284,112.401999 89.8448628,112.65 C90.0411971,112.898001 90.4390264,113.130499 91.0383628,113.3475 C91.6376991,113.564501 92.5366901,113.786666 93.7353628,114.014 C97.4553814,114.737337 99.3153628,116.359654 99.3153628,118.881 C99.3153628,120.348341 98.6798691,121.536662 97.4088628,122.446 C96.1378564,123.355338 94.3657075,123.81 92.0923628,123.81 Z M103.252363,123.5 C103.045695,123.5 102.87003,123.427667 102.725363,123.283 C102.580695,123.138333 102.508363,122.962668 102.508363,122.756 L102.508363,102.234 C102.508363,102.006666 102.580695,101.825834 102.725363,101.6915 C102.87003,101.557166 103.045695,101.49 103.252363,101.49 L106.073363,101.49 C106.300697,101.49 106.481529,101.557166 106.615863,101.6915 C106.750197,101.825834 106.817363,102.006666 106.817363,102.234 L106.817363,109.302 C108.057369,107.813993 109.721019,107.07 111.808363,107.07 C113.709706,107.07 115.22869,107.69516 116.365363,108.9455 C117.502035,110.19584 118.070363,111.895656 118.070363,114.045 L118.070363,122.756 C118.070363,122.962668 118.003197,123.138333 117.868863,123.283 C117.734529,123.427667 117.553697,123.5 117.326363,123.5 L114.505363,123.5 C114.278028,123.5 114.09203,123.427667 113.947363,123.283 C113.802695,123.138333 113.730363,122.962668 113.730363,122.756 L113.730363,114.231 C113.730363,113.032327 113.435866,112.09717 112.846863,111.4255 C112.25786,110.75383 111.415702,110.418 110.320363,110.418 C109.266357,110.418 108.419033,110.758997 107.778363,111.441 C107.137693,112.123003 106.817363,113.052994 106.817363,114.231 L106.817363,122.756 C106.817363,122.962668 106.750197,123.138333 106.615863,123.283 C106.481529,123.427667 106.300697,123.5 106.073363,123.5 L103.252363,123.5 Z M126.688363,123.81 C125.634357,123.81 124.6682,123.598169 123.789863,123.1745 C122.911525,122.750831 122.219199,122.177337 121.712863,121.454 C121.206527,120.730663 120.953363,119.935004 120.953363,119.067 C120.953363,117.66166 121.52169,116.525004 122.658363,115.657 C123.795035,114.788996 125.355353,114.200002 127.339363,113.89 L131.586363,113.27 L131.586363,112.619 C131.586363,111.730329 131.359032,111.058669 130.904363,110.604 C130.449694,110.149331 129.726368,109.922 128.734363,109.922 C128.052359,109.922 127.504698,110.045999 127.091363,110.294 C126.678027,110.542001 126.342197,110.795165 126.083863,111.0535 L125.572363,111.565 C125.489696,111.813001 125.334697,111.937 125.107363,111.937 L122.689363,111.937 C122.503362,111.937 122.343197,111.875001 122.208863,111.751 C122.074529,111.626999 122.007363,111.461668 122.007363,111.255 C122.02803,110.738331 122.281194,110.154503 122.766863,109.5035 C123.252532,108.852497 124.001691,108.284169 125.014363,107.7985 C126.027034,107.312831 127.277355,107.07 128.765363,107.07 C131.204042,107.07 132.981357,107.617661 134.097363,108.713 C135.213368,109.808339 135.771363,111.244658 135.771363,113.022 L135.771363,122.756 C135.771363,122.962668 135.704197,123.138333 135.569863,123.283 C135.435529,123.427667 135.254697,123.5 135.027363,123.5 L132.454363,123.5 C132.247695,123.5 132.07203,123.427667 131.927363,123.283 C131.782695,123.138333 131.710363,122.962668 131.710363,122.756 L131.710363,121.547 C131.255694,122.208337 130.615034,122.750831 129.788363,123.1745 C128.961692,123.598169 127.928369,123.81 126.688363,123.81 Z M127.742363,120.834 C128.879035,120.834 129.809026,120.462004 130.532363,119.718 C131.2557,118.973996 131.617363,117.89934 131.617363,116.494 L131.617363,115.874 L128.517363,116.37 C126.140684,116.742002 124.952363,117.537661 124.952363,118.757 C124.952363,119.418337 125.226193,119.929832 125.773863,120.2915 C126.321532,120.653168 126.977692,120.834 127.742363,120.834 Z M140.483363,123.5 C140.276695,123.5 140.10103,123.427667 139.956363,123.283 C139.811695,123.138333 139.739363,122.962668 139.739363,122.756 L139.739363,108.155 C139.739363,107.927666 139.811695,107.741667 139.956363,107.597 C140.10103,107.452333 140.276695,107.38 140.483363,107.38 L143.025363,107.38 C143.252697,107.38 143.438695,107.452333 143.583363,107.597 C143.72803,107.741667 143.800363,107.927666 143.800363,108.155 L143.800363,109.426 C144.833701,108.061993 146.321686,107.38 148.264363,107.38 L149.566363,107.38 C149.793697,107.38 149.974529,107.447166 150.108863,107.5815 C150.243197,107.715834 150.310363,107.896666 150.310363,108.124 L150.310363,110.387 C150.310363,110.593668 150.243197,110.769333 150.108863,110.914 C149.974529,111.058667 149.793697,111.131 149.566363,111.131 L147.117363,111.131 C146.146025,111.131 145.381366,111.409997 144.823363,111.968 C144.26536,112.526003 143.986363,113.290662 143.986363,114.262 L143.986363,122.756 C143.986363,122.962668 143.91403,123.138333 143.769363,123.283 C143.624695,123.427667 143.44903,123.5 143.242363,123.5 L140.483363,123.5 Z M159.486363,123.81 C157.171685,123.81 155.337536,123.148673 153.983863,121.826 C152.630189,120.503327 151.91203,118.622679 151.829363,116.184 L151.798363,115.409 C151.798363,112.825654 152.475189,110.790007 153.828863,109.302 C155.182536,107.813993 157.058017,107.07 159.455363,107.07 C161.914708,107.07 163.810856,107.813993 165.143863,109.302 C166.476869,110.790007 167.143363,112.773988 167.143363,115.254 L167.143363,115.905 C167.143363,116.111668 167.07103,116.287333 166.926363,116.432 C166.781695,116.576667 166.595697,116.649 166.368363,116.649 L156.076363,116.649 L156.076363,116.897 C156.117696,118.054339 156.43286,119.010163 157.021863,119.7645 C157.610866,120.518837 158.422024,120.896 159.455363,120.896 C160.633369,120.896 161.594359,120.420671 162.338363,119.47 C162.524364,119.242666 162.669029,119.103167 162.772363,119.0515 C162.875697,118.999833 163.051362,118.974 163.299363,118.974 L166.027363,118.974 C166.213364,118.974 166.373529,119.025666 166.507863,119.129 C166.642197,119.232334 166.709363,119.376999 166.709363,119.563 C166.709363,120.059002 166.414866,120.64283 165.825863,121.3145 C165.23686,121.98617 164.394702,122.569998 163.299363,123.066 C162.204024,123.562002 160.933037,123.81 159.486363,123.81 Z M162.865363,114.014 L162.865363,113.952 C162.865363,112.732661 162.560532,111.75617 161.950863,111.0225 C161.341193,110.28883 160.509368,109.922 159.455363,109.922 C158.401357,109.922 157.574699,110.28883 156.975363,111.0225 C156.376026,111.75617 156.076363,112.732661 156.076363,113.952 L156.076363,114.014 L162.865363,114.014 Z M179.605363,129.39 C179.440029,129.39 179.290197,129.328001 179.155863,129.204 C179.021529,129.079999 178.954363,128.935334 178.954363,128.77 C178.954363,128.625333 178.995696,128.460001 179.078363,128.274 L181.527363,122.539 L175.575363,108.496 C175.492696,108.309999 175.451363,108.165334 175.451363,108.062 C175.47203,107.875999 175.544362,107.715834 175.668363,107.5815 C175.792363,107.447166 175.947362,107.38 176.133363,107.38 L178.706363,107.38 C179.078365,107.38 179.347029,107.576331 179.512363,107.969 L183.635363,118.075 L187.820363,107.969 C188.02703,107.576331 188.316361,107.38 188.688363,107.38 L191.199363,107.38 C191.385364,107.38 191.540362,107.441999 191.664363,107.566 C191.788363,107.690001 191.850363,107.834666 191.850363,108 C191.850363,108.144667 191.80903,108.309999 191.726363,108.496 L182.953363,128.801 C182.788029,129.193669 182.498698,129.39 182.085363,129.39 L179.605363,129.39 Z M201.088363,123.81 C198.649684,123.81 196.769036,123.190006 195.446363,121.95 C194.123689,120.709994 193.410697,118.994678 193.307363,116.804 L193.276363,115.44 L193.307363,114.076 C193.410697,111.905989 194.134023,110.19584 195.477363,108.9455 C196.820703,107.69516 198.691017,107.07 201.088363,107.07 C203.465041,107.07 205.325023,107.69516 206.668363,108.9455 C208.011703,110.19584 208.735029,111.905989 208.838363,114.076 C208.85903,114.324001 208.869363,114.778663 208.869363,115.44 C208.869363,116.101337 208.85903,116.555999 208.838363,116.804 C208.735029,118.994678 208.022036,120.709994 206.699363,121.95 C205.376689,123.190006 203.506375,123.81 201.088363,123.81 Z M201.088363,120.679 C202.183702,120.679 203.02586,120.338003 203.614863,119.656 C204.203866,118.973997 204.519029,117.971673 204.560363,116.649 C204.58103,116.442332 204.591363,116.039336 204.591363,115.44 C204.591363,114.840664 204.58103,114.437668 204.560363,114.231 C204.519029,112.908327 204.198699,111.900837 203.599363,111.2085 C203.000026,110.516163 202.163035,110.17 201.088363,110.17 C199.993024,110.17 199.145699,110.516163 198.546363,111.2085 C197.947026,111.900837 197.626696,112.908327 197.585363,114.231 L197.554363,115.44 L197.585363,116.649 C197.626696,117.971673 197.947026,118.973997 198.546363,119.656 C199.145699,120.338003 199.993024,120.679 201.088363,120.679 Z M218.293363,123.81 C216.39202,123.81 214.893702,123.190006 213.798363,121.95 C212.703024,120.709994 212.155363,119.005011 212.155363,116.835 L212.155363,108.124 C212.155363,107.896666 212.227695,107.715834 212.372363,107.5815 C212.51703,107.447166 212.692695,107.38 212.899363,107.38 L215.689363,107.38 C215.89603,107.38 216.071695,107.452333 216.216363,107.597 C216.36103,107.741667 216.433363,107.917332 216.433363,108.124 L216.433363,116.649 C216.433363,119.191013 217.539018,120.462 219.750363,120.462 C220.825035,120.462 221.677526,120.121003 222.307863,119.439 C222.938199,118.756997 223.253363,117.827006 223.253363,116.649 L223.253363,108.124 C223.253363,107.896666 223.325695,107.715834 223.470363,107.5815 C223.61503,107.447166 223.790695,107.38 223.997363,107.38 L226.756363,107.38 C226.983697,107.38 227.164529,107.447166 227.298863,107.5815 C227.433197,107.715834 227.500363,107.896666 227.500363,108.124 L227.500363,122.756 C227.500363,122.962668 227.433197,123.138333 227.298863,123.283 C227.164529,123.427667 226.983697,123.5 226.756363,123.5 L224.183363,123.5 C223.976695,123.5 223.80103,123.427667 223.656363,123.283 C223.511695,123.138333 223.439363,122.962668 223.439363,122.756 L223.439363,121.485 C222.30269,123.035008 220.587374,123.81 218.293363,123.81 Z M232.336363,123.5 C232.129695,123.5 231.95403,123.427667 231.809363,123.283 C231.664695,123.138333 231.592363,122.962668 231.592363,122.756 L231.592363,108.155 C231.592363,107.927666 231.664695,107.741667 231.809363,107.597 C231.95403,107.452333 232.129695,107.38 232.336363,107.38 L234.878363,107.38 C235.105697,107.38 235.291695,107.452333 235.436363,107.597 C235.58103,107.741667 235.653363,107.927666 235.653363,108.155 L235.653363,109.426 C236.686701,108.061993 238.174686,107.38 240.117363,107.38 L241.419363,107.38 C241.646697,107.38 241.827529,107.447166 241.961863,107.5815 C242.096197,107.715834 242.163363,107.896666 242.163363,108.124 L242.163363,110.387 C242.163363,110.593668 242.096197,110.769333 241.961863,110.914 C241.827529,111.058667 241.646697,111.131 241.419363,111.131 L238.970363,111.131 C237.999025,111.131 237.234366,111.409997 236.676363,111.968 C236.11836,112.526003 235.839363,113.290662 235.839363,114.262 L235.839363,122.756 C235.839363,122.962668 235.76703,123.138333 235.622363,123.283 C235.477695,123.427667 235.30203,123.5 235.095363,123.5 L232.336363,123.5 Z M131.493363,160.5 C131.286695,160.5 131.11103,160.427667 130.966363,160.283 C130.821695,160.138333 130.749363,159.962668 130.749363,159.756 L130.749363,139.544 C130.749363,139.316666 130.821695,139.135834 130.966363,139.0015 C131.11103,138.867166 131.286695,138.8 131.493363,138.8 L134.469363,138.8 C134.696697,138.8 134.877529,138.867166 135.011863,139.0015 C135.146197,139.135834 135.213363,139.316666 135.213363,139.544 L135.213363,159.756 C135.213363,159.962668 135.146197,160.138333 135.011863,160.283 C134.877529,160.427667 134.696697,160.5 134.469363,160.5 L131.493363,160.5 Z M140.421363,160.5 C140.214695,160.5 140.03903,160.427667 139.894363,160.283 C139.749695,160.138333 139.677363,159.962668 139.677363,159.756 L139.677363,145.124 C139.677363,144.896666 139.749695,144.715834 139.894363,144.5815 C140.03903,144.447166 140.214695,144.38 140.421363,144.38 L142.994363,144.38 C143.221697,144.38 143.402529,144.447166 143.536863,144.5815 C143.671197,144.715834 143.738363,144.896666 143.738363,145.124 L143.738363,146.395 C144.999036,144.844992 146.724685,144.07 148.915363,144.07 C150.816706,144.07 152.325357,144.689994 153.441363,145.93 C154.557368,147.170006 155.115363,148.874989 155.115363,151.045 L155.115363,159.756 C155.115363,159.962668 155.048197,160.138333 154.913863,160.283 C154.779529,160.427667 154.598697,160.5 154.371363,160.5 L151.581363,160.5 C151.374695,160.5 151.19903,160.427667 151.054363,160.283 C150.909695,160.138333 150.837363,159.962668 150.837363,159.756 L150.837363,151.231 C150.837363,150.032327 150.542866,149.09717 149.953863,148.4255 C149.36486,147.75383 148.522702,147.418 147.427363,147.418 C146.373357,147.418 145.526033,147.758997 144.885363,148.441 C144.244693,149.123003 143.924363,150.052994 143.924363,151.231 L143.924363,159.756 C143.924363,159.962668 143.857197,160.138333 143.722863,160.283 C143.588529,160.427667 143.407697,160.5 143.180363,160.5 L140.421363,160.5 Z M165.190363,160.81 C163.619688,160.81 162.307368,160.572336 161.253363,160.097 C160.199357,159.621664 159.419199,159.068836 158.912863,158.4385 C158.406527,157.808164 158.153363,157.265669 158.153363,156.811 C158.153363,156.604332 158.220529,156.439001 158.354863,156.315 C158.489197,156.190999 158.649362,156.129 158.835363,156.129 L161.377363,156.129 C161.542697,156.129 161.687362,156.211666 161.811363,156.377 C161.914697,156.459667 162.147194,156.655998 162.508863,156.966 C162.870531,157.276002 163.28386,157.518832 163.748863,157.6945 C164.213865,157.870168 164.72536,157.958 165.283363,157.958 C166.110034,157.958 166.781694,157.797835 167.298363,157.4775 C167.815032,157.157165 168.073363,156.697336 168.073363,156.098 C168.073363,155.684665 167.954531,155.348835 167.716863,155.0905 C167.479195,154.832165 167.055532,154.594501 166.445863,154.3775 C165.836193,154.160499 164.921702,153.917668 163.702363,153.649 C161.945687,153.276998 160.648867,152.70867 159.811863,151.944 C158.974859,151.17933 158.556363,150.166673 158.556363,148.906 C158.556363,148.079329 158.80436,147.29917 159.300363,146.5655 C159.796365,145.83183 160.535191,145.232502 161.516863,144.7675 C162.498534,144.302498 163.671356,144.07 165.035363,144.07 C166.440703,144.07 167.649691,144.292164 168.662363,144.7365 C169.675034,145.180836 170.44486,145.712997 170.971863,146.333 C171.498865,146.953003 171.762363,147.500664 171.762363,147.976 C171.762363,148.162001 171.695197,148.322166 171.560863,148.4565 C171.426529,148.590834 171.266364,148.658 171.080363,148.658 L168.755363,148.658 C168.528028,148.658 168.352363,148.575334 168.228363,148.41 C168.083695,148.306666 167.851198,148.115501 167.530863,147.8365 C167.210528,147.557499 166.854031,147.335334 166.461363,147.17 C166.068694,147.004666 165.593366,146.922 165.035363,146.922 C164.270692,146.922 163.681698,147.087332 163.268363,147.418 C162.855027,147.748668 162.648363,148.182664 162.648363,148.72 C162.648363,149.092002 162.746528,149.401999 162.942863,149.65 C163.139197,149.898001 163.537026,150.130499 164.136363,150.3475 C164.735699,150.564501 165.63469,150.786666 166.833363,151.014 C170.553381,151.737337 172.413363,153.359654 172.413363,155.881 C172.413363,157.348341 171.777869,158.536662 170.506863,159.446 C169.235856,160.355338 167.463707,160.81 165.190363,160.81 Z M176.195363,141.745 C175.988695,141.745 175.81303,141.672667 175.668363,141.528 C175.523695,141.383333 175.451363,141.207668 175.451363,141.001 L175.451363,138.738 C175.451363,138.510666 175.523695,138.324667 175.668363,138.18 C175.81303,138.035333 175.988695,137.963 176.195363,137.963 L179.047363,137.963 C179.274697,137.963 179.460695,138.035333 179.605363,138.18 C179.75003,138.324667 179.822363,138.510666 179.822363,138.738 L179.822363,141.001 C179.822363,141.207668 179.744864,141.383333 179.589863,141.528 C179.434862,141.672667 179.25403,141.745 179.047363,141.745 L176.195363,141.745 Z M176.319363,160.5 C176.112695,160.5 175.93703,160.427667 175.792363,160.283 C175.647695,160.138333 175.575363,159.962668 175.575363,159.756 L175.575363,145.124 C175.575363,144.896666 175.647695,144.715834 175.792363,144.5815 C175.93703,144.447166 176.112695,144.38 176.319363,144.38 L178.954363,144.38 C179.16103,144.38 179.336695,144.452333 179.481363,144.597 C179.62603,144.741667 179.698363,144.917332 179.698363,145.124 L179.698363,159.756 C179.698363,159.962668 179.62603,160.138333 179.481363,160.283 C179.336695,160.427667 179.16103,160.5 178.954363,160.5 L176.319363,160.5 Z M191.075363,167.32 C189.23602,167.32 187.748035,167.01517 186.611363,166.4055 C185.47469,165.79583 184.668698,165.098337 184.193363,164.313 C183.718027,163.527663 183.480363,162.856003 183.480363,162.298 C183.480363,162.091332 183.552695,161.920834 183.697363,161.7865 C183.84203,161.652166 184.017695,161.585 184.224363,161.585 L186.983363,161.585 C187.169364,161.585 187.329529,161.6315 187.463863,161.7245 C187.598197,161.8175 187.706696,161.987999 187.789363,162.236 C188.016697,162.773336 188.357694,163.233165 188.812363,163.6155 C189.267032,163.997835 189.969691,164.189 190.920363,164.189 C192.160369,164.189 193.069693,163.915169 193.648363,163.3675 C194.227032,162.819831 194.516363,161.864007 194.516363,160.5 L194.516363,158.392 C193.400357,159.714673 191.819373,160.376 189.773363,160.376 C187.624019,160.376 186.006868,159.725007 184.921863,158.423 C183.836857,157.120993 183.25303,155.343678 183.170363,153.091 L183.139363,152.254 L183.170363,151.417 C183.25303,149.205656 183.842024,147.42834 184.937363,146.085 C186.032702,144.74166 187.644685,144.07 189.773363,144.07 C190.868702,144.07 191.829692,144.276665 192.656363,144.69 C193.483034,145.103335 194.165027,145.66133 194.702363,146.364 L194.702363,145.155 C194.702363,144.927666 194.779862,144.741667 194.934863,144.597 C195.089864,144.452333 195.270695,144.38 195.477363,144.38 L198.019363,144.38 C198.22603,144.38 198.401695,144.452333 198.546363,144.597 C198.69103,144.741667 198.763363,144.927666 198.763363,145.155 L198.794363,160.097 C198.794363,162.391011 198.153702,164.168327 196.872363,165.429 C195.591023,166.689673 193.658709,167.32 191.075363,167.32 Z M190.951363,157.09 C192.108702,157.09 192.976693,156.718004 193.555363,155.974 C194.134032,155.229996 194.454362,154.320672 194.516363,153.246 C194.53703,153.080666 194.547363,152.750002 194.547363,152.254 C194.547363,151.757998 194.53703,151.427334 194.516363,151.262 C194.454362,150.187328 194.134032,149.278004 193.555363,148.534 C192.976693,147.789996 192.108702,147.418 190.951363,147.418 C188.719352,147.418 187.541363,148.781986 187.417363,151.51 L187.386363,152.254 C187.386363,155.478016 188.574684,157.09 190.951363,157.09 Z M203.661363,160.5 C203.454695,160.5 203.27903,160.427667 203.134363,160.283 C202.989695,160.138333 202.917363,159.962668 202.917363,159.756 L202.917363,139.234 C202.917363,139.006666 202.989695,138.825834 203.134363,138.6915 C203.27903,138.557166 203.454695,138.49 203.661363,138.49 L206.482363,138.49 C206.709697,138.49 206.890529,138.557166 207.024863,138.6915 C207.159197,138.825834 207.226363,139.006666 207.226363,139.234 L207.226363,146.302 C208.466369,144.813993 210.130019,144.07 212.217363,144.07 C214.118706,144.07 215.63769,144.69516 216.774363,145.9455 C217.911035,147.19584 218.479363,148.895656 218.479363,151.045 L218.479363,159.756 C218.479363,159.962668 218.412197,160.138333 218.277863,160.283 C218.143529,160.427667 217.962697,160.5 217.735363,160.5 L214.914363,160.5 C214.687028,160.5 214.50103,160.427667 214.356363,160.283 C214.211695,160.138333 214.139363,159.962668 214.139363,159.756 L214.139363,151.231 C214.139363,150.032327 213.844866,149.09717 213.255863,148.4255 C212.66686,147.75383 211.824702,147.418 210.729363,147.418 C209.675357,147.418 208.828033,147.758997 208.187363,148.441 C207.546693,149.123003 207.226363,150.052994 207.226363,151.231 L207.226363,159.756 C207.226363,159.962668 207.159197,160.138333 207.024863,160.283 C206.890529,160.427667 206.709697,160.5 206.482363,160.5 L203.661363,160.5 Z M229.546363,160.5 C227.665687,160.5 226.250034,160.009172 225.299363,159.0275 C224.348691,158.045828 223.873363,156.604343 223.873363,154.703 L223.873363,147.697 L221.424363,147.697 C221.217695,147.697 221.04203,147.624667 220.897363,147.48 C220.752695,147.335333 220.680363,147.159668 220.680363,146.953 L220.680363,145.124 C220.680363,144.917332 220.752695,144.741667 220.897363,144.597 C221.04203,144.452333 221.217695,144.38 221.424363,144.38 L223.873363,144.38 L223.873363,139.234 C223.873363,139.006666 223.945695,138.825834 224.090363,138.6915 C224.23503,138.557166 224.410695,138.49 224.617363,138.49 L227.190363,138.49 C227.417697,138.49 227.598529,138.557166 227.732863,138.6915 C227.867197,138.825834 227.934363,139.006666 227.934363,139.234 L227.934363,144.38 L231.809363,144.38 C232.01603,144.38 232.191695,144.452333 232.336363,144.597 C232.48103,144.741667 232.553363,144.917332 232.553363,145.124 L232.553363,146.953 C232.553363,147.159668 232.48103,147.335333 232.336363,147.48 C232.191695,147.624667 232.01603,147.697 231.809363,147.697 L227.934363,147.697 L227.934363,154.362 C227.934363,155.250671 228.089361,155.922331 228.399363,156.377 C228.709364,156.831669 229.215693,157.059 229.918363,157.059 L232.088363,157.059 C232.315697,157.059 232.496529,157.126166 232.630863,157.2605 C232.765197,157.394834 232.832363,157.575666 232.832363,157.803 L232.832363,159.756 C232.832363,159.962668 232.765197,160.138333 232.630863,160.283 C232.496529,160.427667 232.315697,160.5 232.088363,160.5 L229.546363,160.5 Z M236.149363,160.5 C235.942695,160.5 235.76703,160.427667 235.622363,160.283 C235.477695,160.138333 235.405363,159.962668 235.405363,159.756 L235.405363,156.625 C235.405363,156.418332 235.477695,156.242667 235.622363,156.098 C235.76703,155.953333 235.942695,155.881 236.149363,155.881 L239.280363,155.881 C239.48703,155.881 239.662695,155.953333 239.807363,156.098 C239.95203,156.242667 240.024363,156.418332 240.024363,156.625 L240.024363,159.756 C240.024363,159.962668 239.957197,160.138333 239.822863,160.283 C239.688529,160.427667 239.507697,160.5 239.280363,160.5 L236.149363,160.5 Z" id="Login-to-share-your" fill="#2B2B2B"></path>
                    <rect id="Rectangle" fill="#FCB853" x="174" y="137" width="8" height="7"></rect>
                </g>
            </g>
        </g>
    </g>
</svg>