<?xml version="1.0" encoding="UTF-8"?>
<svg width="186px" height="144px" viewBox="0 0 186 144" version="1.1" xmlns="http://www.w3.org/2000/svg" xmlns:xlink="http://www.w3.org/1999/xlink">
    <!-- Generator: Sketch 52.4 (67378) - http://www.bohemiancoding.com/sketch -->
    <title>Group 2</title>
    <desc>Created with Sketch.</desc>
    <g id="insight-desktop" stroke="none" stroke-width="1" fill="none" fill-rule="evenodd">
        <g id="Desktop---login" transform="translate(-6.000000, -79.000000)">
            <g id="Group-2" transform="translate(7.000000, 77.000000)">
                <polygon id="Rectangle" points="0 0 96.2279604 0 184 0 184 145 0 145"></polygon>
                <path d="M0,5.5 L19,5.5" id="Line" stroke="#FCECC9" stroke-linecap="square"></path>
                <path d="M0,13.5 L47,13.5" id="Line" stroke="#FCECC9" stroke-linecap="square"></path>
                <path d="M31,5.5 L76,5.5" id="Line" stroke="#FCECC9" stroke-linecap="square"></path>
                <path d="M59,13.5 L78,13.5" id="Line" stroke="#FCECC9" stroke-linecap="square"></path>
                <path d="M90,5.5 L109,5.5" id="Line" stroke="#FCECC9" stroke-linecap="square"></path>
                <path d="M74,21.5 L93,21.5" id="Line" stroke="#FCECC9" stroke-linecap="square"></path>
                <path d="M89,13.5 L108,13.5" id="Line" stroke="#FCECC9" stroke-linecap="square"></path>
                <path d="M118,13.5 L137,13.5" id="Line" stroke="#FCECC9" stroke-linecap="square"></path>
                <path d="M149,13.5 L183.027778,13.5" id="Line" stroke="#FCECC9" stroke-linecap="square"></path>
                <path d="M122,6 L183,6" id="Line" stroke="#FCECC9" stroke-linecap="square"></path>
                <path d="M74,29.5 L121,29.5" id="Line" stroke="#FCECC9" stroke-linecap="square"></path>
                <path d="M107,21.5 L152,21.5" id="Line" stroke="#FCECC9" stroke-linecap="square"></path>
                <path d="M133,29.5 L183.019231,29.5" id="Line" stroke="#FCECC9" stroke-linecap="square"></path>
                <path d="M164,21.5 L183,21.5" id="Line" stroke="#FCECC9" stroke-linecap="square"></path>
                <path d="M74,37.5 L93,37.5" id="Line" stroke="#FCECC9" stroke-linecap="square"></path>
                <path d="M44,45.5 L63,45.5" id="Line" stroke="#FCECC9" stroke-linecap="square"></path>
                <path d="M47,37.5 L66,37.5" id="Line" stroke="#FCECC9" stroke-linecap="square"></path>
                <path d="M42,21.5 L61,21.5" id="Line" stroke="#FCECC9" stroke-linecap="square"></path>
                <path d="M0,21.5 L28.0333333,21.5" id="Line" stroke="#FCECC9" stroke-linecap="square"></path>
                <path d="M0,37.5 L41.9761905,37.5" id="Line" stroke="#FCECC9" stroke-linecap="square"></path>
                <path d="M0,29.5 L54.5,29.5" id="Line" stroke="#FCECC9" stroke-linecap="square"></path>
                <path d="M0,45.5 L34.0277778,45.5" id="Line" stroke="#FCECC9" stroke-linecap="square"></path>
                <path d="M74,45.5 L121,45.5" id="Line" stroke="#FCECC9" stroke-linecap="square"></path>
                <path d="M107,37.5 L152,37.5" id="Line" stroke="#FCECC9" stroke-linecap="square"></path>
                <path d="M133,45.5 L183.019231,45.5" id="Line" stroke="#FCECC9" stroke-linecap="square"></path>
                <path d="M0,54.5 L19,54.5" id="Line" stroke="#FCECC9" stroke-linecap="square"></path>
                <path d="M0,62.5 L47,62.5" id="Line" stroke="#FCECC9" stroke-linecap="square"></path>
                <path d="M31,54.5 L76,54.5" id="Line" stroke="#FCECC9" stroke-linecap="square"></path>
                <path d="M59,62.5 L78,62.5" id="Line" stroke="#FCECC9" stroke-linecap="square"></path>
                <path d="M90,54.5 L109,54.5" id="Line" stroke="#FCECC9" stroke-linecap="square"></path>
                <path d="M74,69.5 L93,69.5" id="Line" stroke="#FCECC9" stroke-linecap="square"></path>
                <path d="M89,62.5 L108,62.5" id="Line" stroke="#FCECC9" stroke-linecap="square"></path>
                <path d="M118,62.5 L137,62.5" id="Line" stroke="#FCECC9" stroke-linecap="square"></path>
                <path d="M149,62.5 L183.027778,62.5" id="Line" stroke="#FCECC9" stroke-linecap="square"></path>
                <path d="M122,53 L183,53" id="Line" stroke="#FCECC9" stroke-linecap="square"></path>
                <path d="M74,76.5 L121,76.5" id="Line" stroke="#FCECC9" stroke-linecap="square"></path>
                <path d="M107,69.5 L152,69.5" id="Line" stroke="#FCECC9" stroke-linecap="square"></path>
                <path d="M133,76.5 L183.019231,76.5" id="Line" stroke="#FCECC9" stroke-linecap="square"></path>
                <path d="M164,69.5 L183,69.5" id="Line" stroke="#FCECC9" stroke-linecap="square"></path>
                <path d="M74,86.5 L93,86.5" id="Line" stroke="#FCECC9" stroke-linecap="square"></path>
                <path d="M44,93.5 L63,93.5" id="Line" stroke="#FCECC9" stroke-linecap="square"></path>
                <path d="M47,86.5 L66,86.5" id="Line" stroke="#FCECC9" stroke-linecap="square"></path>
                <path d="M42,69.5 L61,69.5" id="Line" stroke="#FCECC9" stroke-linecap="square"></path>
                <path d="M0,69.5 L28.0333333,69.5" id="Line" stroke="#FCECC9" stroke-linecap="square"></path>
                <path d="M0,84.5 L41.9761905,84.5" id="Line" stroke="#FCECC9" stroke-linecap="square"></path>
                <path d="M0,76.5 L54.5,76.5" id="Line" stroke="#FCECC9" stroke-linecap="square"></path>
                <path d="M0,92.5 L34.0277778,92.5" id="Line" stroke="#FCECC9" stroke-linecap="square"></path>
                <path d="M74,93.5 L121,93.5" id="Line" stroke="#FCECC9" stroke-linecap="square"></path>
                <path d="M107,86.5 L152,86.5" id="Line" stroke="#FCECC9" stroke-linecap="square"></path>
                <path d="M133,93.5 L183.019231,93.5" id="Line" stroke="#FCECC9" stroke-linecap="square"></path>
                <path d="M164,86.5 L183,86.5" id="Line" stroke="#FCECC9" stroke-linecap="square"></path>
                <path d="M0,99.5 L19,99.5" id="Line" stroke="#FCECC9" stroke-linecap="square"></path>
                <path d="M0,108.5 L47,108.5" id="Line" stroke="#FCECC9" stroke-linecap="square"></path>
                <path d="M31,99.5 L76,99.5" id="Line" stroke="#FCECC9" stroke-linecap="square"></path>
                <path d="M59,108.5 L78,108.5" id="Line" stroke="#FCECC9" stroke-linecap="square"></path>
                <path d="M90,99.5 L109,99.5" id="Line" stroke="#FCECC9" stroke-linecap="square"></path>
                <path d="M74,115.5 L93,115.5" id="Line" stroke="#FCECC9" stroke-linecap="square"></path>
                <path d="M89,108.5 L108,108.5" id="Line" stroke="#FCECC9" stroke-linecap="square"></path>
                <path d="M118,108.5 L137,108.5" id="Line" stroke="#FCECC9" stroke-linecap="square"></path>
                <path d="M149,108.5 L183.027778,108.5" id="Line" stroke="#FCECC9" stroke-linecap="square"></path>
                <path d="M122,99 L183,99" id="Line" stroke="#FCECC9" stroke-linecap="square"></path>
                <path d="M74,124.5 L121,124.5" id="Line" stroke="#FCECC9" stroke-linecap="square"></path>
                <path d="M107,115.5 L152,115.5" id="Line" stroke="#FCECC9" stroke-linecap="square"></path>
                <path d="M133,124.5 L183.019231,124.5" id="Line" stroke="#FCECC9" stroke-linecap="square"></path>
                <path d="M164,115.5 L183,115.5" id="Line" stroke="#FCECC9" stroke-linecap="square"></path>
                <path d="M74,131.5 L93,131.5" id="Line" stroke="#FCECC9" stroke-linecap="square"></path>
                <path d="M42,140.5 L61,140.5" id="Line" stroke="#FCECC9" stroke-linecap="square"></path>
                <path d="M47,131.5 L66,131.5" id="Line" stroke="#FCECC9" stroke-linecap="square"></path>
                <path d="M42,115.5 L61,115.5" id="Line" stroke="#FCECC9" stroke-linecap="square"></path>
                <path d="M0,115.5 L28.0333333,115.5" id="Line" stroke="#FCECC9" stroke-linecap="square"></path>
                <path d="M0,130.5 L41.9761905,130.5" id="Line" stroke="#FCECC9" stroke-linecap="square"></path>
                <path d="M0,124.5 L54.5,124.5" id="Line" stroke="#FCECC9" stroke-linecap="square"></path>
                <path d="M0,140.5 L34.0277778,140.5" id="Line" stroke="#FCECC9" stroke-linecap="square"></path>
                <path d="M74,140.5 L121,140.5" id="Line" stroke="#FCECC9" stroke-linecap="square"></path>
                <path d="M107,131.5 L152,131.5" id="Line" stroke="#FCECC9" stroke-linecap="square"></path>
                <path d="M133,140.5 L183.019231,140.5" id="Line" stroke="#FCECC9" stroke-linecap="square"></path>
                <path d="M164,131.5 L183,131.5" id="Line" stroke="#FCECC9" stroke-linecap="square"></path>
                <path d="M164,37.5 L183,37.5" id="Line" stroke="#FCECC9" stroke-linecap="square"></path>
                <polyline id="Line-3" stroke="#FFFFFF" stroke-linecap="square" points="0 145 184 145 44.1228433 143"></polyline>
                <path d="M0,2.5 L184,2.5" id="Line-3" stroke="#FFFFFF" stroke-linecap="square"></path>
            </g>
        </g>
    </g>
</svg>