<?xml version="1.0" encoding="UTF-8"?>
<svg width="44px" height="44px" version="1.1" viewBox="0 0 43 44" xmlns="http://www.w3.org/2000/svg" xmlns:xlink="http://www.w3.org/1999/xlink">
  <title>a</title>
  <desc>Created with Sketch.</desc>
  <defs>
    <path id="a" d="m42.5 18h-20.5v8.5h11.8c-1.1 5.4-5.7 8.5-11.8 8.5-7.2 0-13-5.8-13-13s5.8-13 13-13c3.1 0 5.9 1.1 8.1 2.9l6.4-6.4c-3.9-3.4-8.9-5.5-14.5-5.5-12.2 0-22 9.8-22 22s9.8 22 22 22c11 0 21-8 21-22 0-1.3-0.2-2.7-0.5-4z"/>
  </defs>
  <g fill="none" fill-rule="evenodd">
    <g transform="translate(-613 -727)">
      <g transform="translate(613 727)">
        <mask fill="white">
          <use xlink:href="#a"/>
        </mask>
        <use fill="#2B2B2B" xlink:href="#a"/>
      </g>
    </g>
  </g>
</svg>
