<?xml version="1.0" encoding="UTF-8"?>
<svg width="28px" height="28px" viewBox="0 0 28 28" version="1.1" xmlns="http://www.w3.org/2000/svg" xmlns:xlink="http://www.w3.org/1999/xlink">
    <!-- Generator: Sketch 52.4 (67378) - http://www.bohemiancoding.com/sketch -->
    <title>google-logo</title>
    <desc>Created with Sketch.</desc>
    <defs>
        <path d="M27.0454545,11.4545455 L14,11.4545455 L14,16.8636364 L21.5090909,16.8636364 C20.8090909,20.3 17.8818182,22.2727273 14,22.2727273 C9.41818182,22.2727273 5.72727273,18.5818182 5.72727273,14 C5.72727273,9.41818182 9.41818182,5.72727273 14,5.72727273 C15.9727273,5.72727273 17.7545455,6.42727273 19.1545455,7.57272727 L23.2272727,3.5 C20.7454545,1.33636364 17.5636364,0 14,0 C6.23636364,0 0,6.23636364 0,14 C0,21.7636364 6.23636364,28 14,28 C21,28 27.3636364,22.9090909 27.3636364,14 C27.3636364,13.1727273 27.2363636,12.2818182 27.0454545,11.4545455 Z" id="path-1"></path>
        <path d="M27.0454545,11.4545455 L14,11.4545455 L14,16.8636364 L21.5090909,16.8636364 C20.8090909,20.3 17.8818182,22.2727273 14,22.2727273 C9.41818182,22.2727273 5.72727273,18.5818182 5.72727273,14 C5.72727273,9.41818182 9.41818182,5.72727273 14,5.72727273 C15.9727273,5.72727273 17.7545455,6.42727273 19.1545455,7.57272727 L23.2272727,3.5 C20.7454545,1.33636364 17.5636364,0 14,0 C6.23636364,0 0,6.23636364 0,14 C0,21.7636364 6.23636364,28 14,28 C21,28 27.3636364,22.9090909 27.3636364,14 C27.3636364,13.1727273 27.2363636,12.2818182 27.0454545,11.4545455 Z" id="path-3"></path>
        <path d="M27.0454545,11.4545455 L14,11.4545455 L14,16.8636364 L21.5090909,16.8636364 C20.8090909,20.3 17.8818182,22.2727273 14,22.2727273 C9.41818182,22.2727273 5.72727273,18.5818182 5.72727273,14 C5.72727273,9.41818182 9.41818182,5.72727273 14,5.72727273 C15.9727273,5.72727273 17.7545455,6.42727273 19.1545455,7.57272727 L23.2272727,3.5 C20.7454545,1.33636364 17.5636364,0 14,0 C6.23636364,0 0,6.23636364 0,14 C0,21.7636364 6.23636364,28 14,28 C21,28 27.3636364,22.9090909 27.3636364,14 C27.3636364,13.1727273 27.2363636,12.2818182 27.0454545,11.4545455 Z" id="path-5"></path>
        <path d="M27.0454545,11.4545455 L14,11.4545455 L14,16.8636364 L21.5090909,16.8636364 C20.8090909,20.3 17.8818182,22.2727273 14,22.2727273 C9.41818182,22.2727273 5.72727273,18.5818182 5.72727273,14 C5.72727273,9.41818182 9.41818182,5.72727273 14,5.72727273 C15.9727273,5.72727273 17.7545455,6.42727273 19.1545455,7.57272727 L23.2272727,3.5 C20.7454545,1.33636364 17.5636364,0 14,0 C6.23636364,0 0,6.23636364 0,14 C0,21.7636364 6.23636364,28 14,28 C21,28 27.3636364,22.9090909 27.3636364,14 C27.3636364,13.1727273 27.2363636,12.2818182 27.0454545,11.4545455 Z" id="path-7"></path>
    </defs>
    <g id="insight-desktop" stroke="none" stroke-width="1" fill="none" fill-rule="evenodd">
        <g id="Desktop---login" transform="translate(-505.000000, -815.000000)">
            <g id="google-logo" transform="translate(505.000000, 815.000000)">
                <g id="Clipped">
                    <mask id="mask-2" fill="white">
                        <use xlink:href="#path-1"></use>
                    </mask>
                    <g id="a"></g>
                    <polygon id="Path" stroke="#2B2B2B" fill="#2B2B2B" mask="url(#mask-2)" points="-1.27272727 22.2727273 -1.27272727 5.72727273 9.54545455 14"></polygon>
                </g>
                <g id="Clipped">
                    <mask id="mask-4" fill="white">
                        <use xlink:href="#path-3"></use>
                    </mask>
                    <g id="a"></g>
                    <polygon id="Path" stroke="#2B2B2B" fill="#2B2B2B" mask="url(#mask-4)" points="-1.27272727 5.72727273 9.54545455 14 14 10.1181818 29.2727273 7.63636364 29.2727273 -1.27272727 -1.27272727 -1.27272727"></polygon>
                </g>
                <g id="Clipped">
                    <mask id="mask-6" fill="white">
                        <use xlink:href="#path-5"></use>
                    </mask>
                    <g id="a"></g>
                    <polygon id="Path" stroke="#2B2B2B" fill="#2B2B2B" mask="url(#mask-6)" points="-1.27272727 22.2727273 17.8181818 7.63636364 22.8454545 8.27272727 29.2727273 -1.27272727 29.2727273 29.2727273 -1.27272727 29.2727273"></polygon>
                </g>
                <g id="Clipped">
                    <mask id="mask-8" fill="white">
                        <use xlink:href="#path-7"></use>
                    </mask>
                    <g id="a"></g>
                    <polygon id="Path" stroke="#2B2B2B" fill="#2B2B2B" mask="url(#mask-8)" points="29.2727273 29.2727273 9.54545455 14 7 12.0909091 29.2727273 5.72727273"></polygon>
                </g>
            </g>
        </g>
    </g>
</svg>