<?xml version="1.0" encoding="UTF-8"?>
<svg width="68px" height="21px" viewBox="0 0 68 21" version="1.1" xmlns="http://www.w3.org/2000/svg" xmlns:xlink="http://www.w3.org/1999/xlink">
    <!-- Generator: Sketch 52.4 (67378) - http://www.bohemiancoding.com/sketch -->
    <title>Title</title>
    <desc>Created with Sketch.</desc>
    <g id="insight-mobile" stroke="none" stroke-width="1" fill="none" fill-rule="evenodd">
        <g id="Mobile---landing-page" transform="translate(-125.000000, -23.000000)">
            <g id="Title" transform="translate(125.000000, 20.000000)">
                <rect id="Rectangle" x="0" y="0" width="71" height="24"></rect>
                <path d="M1.04,19 C0.906666,19 0.7933338,18.9533338 0.7,18.86 C0.6066662,18.7666662 0.56,18.653334 0.56,18.52 L0.56,5.48 C0.56,5.3333326 0.6066662,5.2166671 0.7,5.13 C0.7933338,5.0433329 0.906666,5 1.04,5 L2.96,5 C3.1066674,5 3.2233329,5.0433329 3.31,5.13 C3.3966671,5.2166671 3.44,5.3333326 3.44,5.48 L3.44,18.52 C3.44,18.653334 3.3966671,18.7666662 3.31,18.86 C3.2233329,18.9533338 3.1066674,19 2.96,19 L1.04,19 Z M7.0460628,19 C6.9127288,19 6.7993966,18.9533338 6.7060628,18.86 C6.612729,18.7666662 6.5660628,18.653334 6.5660628,18.52 L6.5660628,9.08 C6.5660628,8.9333326 6.612729,8.8166671 6.7060628,8.73 C6.7993966,8.6433329 6.9127288,8.6 7.0460628,8.6 L8.7060628,8.6 C8.8527302,8.6 8.9693957,8.6433329 9.0560628,8.73 C9.1427299,8.8166671 9.1860628,8.9333326 9.1860628,9.08 L9.1860628,9.9 C9.9994002,8.899995 11.1127224,8.4 12.5260628,8.4 C13.7527356,8.4 14.7260592,8.799996 15.4460628,9.6 C16.1660664,10.400004 16.5260628,11.499993 16.5260628,12.9 L16.5260628,18.52 C16.5260628,18.653334 16.4827299,18.7666662 16.3960628,18.86 C16.3093957,18.9533338 16.1927302,19 16.0460628,19 L14.2460628,19 C14.1127288,19 13.9993966,18.9533338 13.9060628,18.86 C13.812729,18.7666662 13.7660628,18.653334 13.7660628,18.52 L13.7660628,13.02 C13.7660628,12.2466628 13.5760647,11.6433355 13.1960628,11.21 C12.8160609,10.7766645 12.272733,10.56 11.5660628,10.56 C10.8860594,10.56 10.3393982,10.7799978 9.9260628,11.22 C9.5127274,11.6600022 9.3060628,12.2599962 9.3060628,13.02 L9.3060628,18.52 C9.3060628,18.653334 9.2627299,18.7666662 9.1760628,18.86 C9.0893957,18.9533338 8.9727302,19 8.8260628,19 L7.0460628,19 Z M23.2721256,19.2 C22.2587872,19.2 21.412129,19.0466682 20.7321256,18.74 C20.0521222,18.4333318 19.5487939,18.0766687 19.2221256,17.67 C18.8954573,17.2633313 18.7321256,16.9133348 18.7321256,16.62 C18.7321256,16.486666 18.7754585,16.3800004 18.8621256,16.3 C18.9487927,16.2199996 19.052125,16.18 19.1721256,16.18 L20.8121256,16.18 C20.9187928,16.18 21.0121252,16.2333328 21.0921256,16.34 C21.1587926,16.3933336 21.3087911,16.519999 21.5421256,16.72 C21.7754601,16.920001 22.0421241,17.0766661 22.3421256,17.19 C22.6421271,17.3033339 22.9721238,17.36 23.3321256,17.36 C23.8654616,17.36 24.2987906,17.2566677 24.6321256,17.05 C24.9654606,16.8433323 25.1321256,16.5466686 25.1321256,16.16 C25.1321256,15.893332 25.0554597,15.6766675 24.9021256,15.51 C24.7487915,15.3433325 24.4754609,15.1900007 24.0821256,15.05 C23.6887903,14.9099993 23.0987962,14.7533342 22.3121256,14.58 C21.1787866,14.3399988 20.3421283,13.9733358 19.8021256,13.48 C19.2621229,12.9866642 18.9921256,12.3333374 18.9921256,11.52 C18.9921256,10.986664 19.152124,10.4833357 19.4721256,10.01 C19.7921272,9.5366643 20.2687891,9.1500015 20.9021256,8.85 C21.5354621,8.5499985 22.2921212,8.4 23.1721256,8.4 C24.0787968,8.4 24.858789,8.5433319 25.5121256,8.83 C26.1654622,9.1166681 26.6621239,9.459998 27.0021256,9.86 C27.3421273,10.260002 27.5121256,10.6133318 27.5121256,10.92 C27.5121256,11.0400006 27.4687927,11.1433329 27.3821256,11.23 C27.2954585,11.3166671 27.1921262,11.36 27.0721256,11.36 L25.5721256,11.36 C25.4254582,11.36 25.312126,11.3066672 25.2321256,11.2 C25.1387918,11.133333 24.9887933,11.0100009 24.7821256,10.83 C24.5754579,10.6499991 24.3454602,10.5066672 24.0921256,10.4 C23.838791,10.2933328 23.5321274,10.24 23.1721256,10.24 C22.6787898,10.24 22.2987936,10.3466656 22.0321256,10.56 C21.7654576,10.7733344 21.6321256,11.0533316 21.6321256,11.4 C21.6321256,11.6400012 21.6954583,11.8399992 21.8221256,12 C21.9487929,12.1600008 22.205457,12.3099993 22.5921256,12.45 C22.9787942,12.5900007 23.5587884,12.7333326 24.3321256,12.88 C26.7321376,13.346669 27.9321256,14.3933252 27.9321256,16.02 C27.9321256,16.9666714 27.5221297,17.7333304 26.7021256,18.32 C25.8821215,18.9066696 24.7387996,19.2 23.2721256,19.2 Z M30.6181884,6.9 C30.4848544,6.9 30.3715222,6.8533338 30.2781884,6.76 C30.1848546,6.6666662 30.1381884,6.553334 30.1381884,6.42 L30.1381884,4.96 C30.1381884,4.8133326 30.1848546,4.6933338 30.2781884,4.6 C30.3715222,4.5066662 30.4848544,4.46 30.6181884,4.46 L32.4581884,4.46 C32.6048558,4.46 32.7248546,4.5066662 32.8181884,4.6 C32.9115222,4.6933338 32.9581884,4.8133326 32.9581884,4.96 L32.9581884,6.42 C32.9581884,6.553334 32.9081889,6.6666662 32.8081884,6.76 C32.7081879,6.8533338 32.5915224,6.9 32.4581884,6.9 L30.6181884,6.9 Z M30.6981884,19 C30.5648544,19 30.4515222,18.9533338 30.3581884,18.86 C30.2648546,18.7666662 30.2181884,18.653334 30.2181884,18.52 L30.2181884,9.08 C30.2181884,8.9333326 30.2648546,8.8166671 30.3581884,8.73 C30.4515222,8.6433329 30.5648544,8.6 30.6981884,8.6 L32.3981884,8.6 C32.5315224,8.6 32.6448546,8.6466662 32.7381884,8.74 C32.8315222,8.8333338 32.8781884,8.946666 32.8781884,9.08 L32.8781884,18.52 C32.8781884,18.653334 32.8315222,18.7666662 32.7381884,18.86 C32.6448546,18.9533338 32.5315224,19 32.3981884,19 L30.6981884,19 Z M40.4642512,23.4 C39.2775786,23.4 38.3175882,23.2033353 37.5842512,22.81 C36.8509142,22.4166647 36.3309194,21.9666692 36.0242512,21.46 C35.717583,20.9533308 35.5642512,20.5200018 35.5642512,20.16 C35.5642512,20.026666 35.6109174,19.9166671 35.7042512,19.83 C35.797585,19.7433329 35.9109172,19.7 36.0442512,19.7 L37.8242512,19.7 C37.9442518,19.7 38.0475841,19.7299997 38.1342512,19.79 C38.2209183,19.8500003 38.2909176,19.9599992 38.3442512,20.12 C38.4909186,20.4666684 38.7109164,20.7633321 39.0042512,21.01 C39.297586,21.2566679 39.7509148,21.38 40.3642512,21.38 C41.1642552,21.38 41.750916,21.2033351 42.1242512,20.85 C42.4975864,20.4966649 42.6842512,19.8800044 42.6842512,19 L42.6842512,17.64 C41.9642476,18.4933376 40.9442578,18.92 39.6242512,18.92 C38.2375776,18.92 37.1942547,18.5000042 36.4942512,17.66 C35.7942477,16.8199958 35.4175848,15.6733406 35.3642512,14.22 L35.3442512,13.68 L35.3642512,13.14 C35.4175848,11.7133262 35.797581,10.566671 36.5042512,9.7 C37.2109214,8.833329 38.250911,8.4 39.6242512,8.4 C40.3309214,8.4 40.9509152,8.533332 41.4842512,8.8 C42.0175872,9.066668 42.4575828,9.4266644 42.8042512,9.88 L42.8042512,9.1 C42.8042512,8.9533326 42.8542507,8.8333338 42.9542512,8.74 C43.0542517,8.6466662 43.1709172,8.6 43.3042512,8.6 L44.9442512,8.6 C45.0775852,8.6 45.1909174,8.6466662 45.2842512,8.74 C45.377585,8.8333338 45.4242512,8.9533326 45.4242512,9.1 L45.4442512,18.74 C45.4442512,20.2200074 45.030922,21.3666626 44.2042512,22.18 C43.3775804,22.9933374 42.1309262,23.4 40.4642512,23.4 Z M40.3842512,16.8 C41.1309216,16.8 41.690916,16.5600024 42.0642512,16.08 C42.4375864,15.5999976 42.644251,15.0133368 42.6842512,14.32 C42.6975846,14.2133328 42.7042512,14.0000016 42.7042512,13.68 C42.7042512,13.3599984 42.6975846,13.1466672 42.6842512,13.04 C42.644251,12.3466632 42.4375864,11.7600024 42.0642512,11.28 C41.690916,10.7999976 41.1309216,10.56 40.3842512,10.56 C38.944244,10.56 38.1842516,11.4399912 38.1042512,13.2 L38.0842512,13.68 C38.0842512,15.7600104 38.8509102,16.8 40.3842512,16.8 Z M48.830314,19 C48.69698,19 48.5836478,18.9533338 48.490314,18.86 C48.3969802,18.7666662 48.350314,18.653334 48.350314,18.52 L48.350314,5.28 C48.350314,5.1333326 48.3969802,5.0166671 48.490314,4.93 C48.5836478,4.8433329 48.69698,4.8 48.830314,4.8 L50.650314,4.8 C50.7969814,4.8 50.9136469,4.8433329 51.000314,4.93 C51.0869811,5.0166671 51.130314,5.1333326 51.130314,5.28 L51.130314,9.84 C51.930318,8.8799952 53.0036406,8.4 54.350314,8.4 C55.5769868,8.4 56.556977,8.8033293 57.290314,9.61 C58.023651,10.4166707 58.390314,11.5133264 58.390314,12.9 L58.390314,18.52 C58.390314,18.653334 58.3469811,18.7666662 58.260314,18.86 C58.1736469,18.9533338 58.0569814,19 57.910314,19 L56.090314,19 C55.9436466,19 55.8236478,18.9533338 55.730314,18.86 C55.6369802,18.7666662 55.590314,18.653334 55.590314,18.52 L55.590314,13.02 C55.590314,12.2466628 55.4003159,11.6433355 55.020314,11.21 C54.6403121,10.7766645 54.0969842,10.56 53.390314,10.56 C52.7103106,10.56 52.1636494,10.7799978 51.750314,11.22 C51.3369786,11.6600022 51.130314,12.2599962 51.130314,13.02 L51.130314,18.52 C51.130314,18.653334 51.0869811,18.7666662 51.000314,18.86 C50.9136469,18.9533338 50.7969814,19 50.650314,19 L48.830314,19 Z M65.7763768,19 C64.5630374,19 63.6497132,18.6833365 63.0363768,18.05 C62.4230404,17.4166635 62.1163768,16.4866728 62.1163768,15.26 L62.1163768,10.74 L60.5363768,10.74 C60.4030428,10.74 60.2897106,10.6933338 60.1963768,10.6 C60.103043,10.5066662 60.0563768,10.393334 60.0563768,10.26 L60.0563768,9.08 C60.0563768,8.946666 60.103043,8.8333338 60.1963768,8.74 C60.2897106,8.6466662 60.4030428,8.6 60.5363768,8.6 L62.1163768,8.6 L62.1163768,5.28 C62.1163768,5.1333326 62.163043,5.0166671 62.2563768,4.93 C62.3497106,4.8433329 62.4630428,4.8 62.5963768,4.8 L64.2563768,4.8 C64.4030442,4.8 64.5197097,4.8433329 64.6063768,4.93 C64.6930439,5.0166671 64.7363768,5.1333326 64.7363768,5.28 L64.7363768,8.6 L67.2363768,8.6 C67.3697108,8.6 67.483043,8.6466662 67.5763768,8.74 C67.6697106,8.8333338 67.7163768,8.946666 67.7163768,9.08 L67.7163768,10.26 C67.7163768,10.393334 67.6697106,10.5066662 67.5763768,10.6 C67.483043,10.6933338 67.3697108,10.74 67.2363768,10.74 L64.7363768,10.74 L64.7363768,15.04 C64.7363768,15.6133362 64.8363758,16.0466652 65.0363768,16.34 C65.2363778,16.6333348 65.5630412,16.78 66.0163768,16.78 L67.4163768,16.78 C67.5630442,16.78 67.6797097,16.8233329 67.7663768,16.91 C67.8530439,16.9966671 67.8963768,17.1133326 67.8963768,17.26 L67.8963768,18.52 C67.8963768,18.653334 67.8530439,18.7666662 67.7663768,18.86 C67.6797097,18.9533338 67.5630442,19 67.4163768,19 L65.7763768,19 Z" id="Insight" fill="#2B2B2B"></path>
                <rect id="Rectangle" fill="#fcb853" x="28" y="4" width="6" height="4"></rect>
            </g>
        </g>
    </g>
</svg>
