<?xml version="1.0" encoding="UTF-8"?>
<svg width="112px" height="21px" viewBox="0 0 112 21" version="1.1" xmlns="http://www.w3.org/2000/svg" xmlns:xlink="http://www.w3.org/1999/xlink">
    <!-- Generator: Sketch 52.4 (67378) - http://www.bohemiancoding.com/sketch -->
    <title>Title</title>
    <desc>Created with Sketch.</desc>
    <g id="insight-mobile" stroke="none" stroke-width="1" fill="none" fill-rule="evenodd">
        <g id="Mobile---my-insights-received" transform="translate(-104.000000, -23.000000)">
            <g id="Navbar">
                <g id="Title" transform="translate(103.000000, 20.000000)">
                    <rect id="Rectangle" x="1" y="0" width="71" height="24"></rect>
                    <path d="M2.04,19 C1.906666,19 1.7933338,18.9533338 1.7,18.86 C1.6066662,18.7666662 1.56,18.653334 1.56,18.52 L1.56,5.5 C1.56,5.3533326 1.6033329,5.2333338 1.69,5.14 C1.7766671,5.0466662 1.8933326,5 2.04,5 L3.66,5 C3.9133346,5 4.1133326,5.1266654 4.26,5.38 L8.12,12.54 L11.98,5.38 C12.1266674,5.1266654 12.3266654,5 12.58,5 L14.18,5 C14.3266674,5 14.4466662,5.0466662 14.54,5.14 C14.6333338,5.2333338 14.68,5.3533326 14.68,5.5 L14.68,18.52 C14.68,18.6666674 14.6333338,18.7833329 14.54,18.87 C14.4466662,18.9566671 14.3266674,19 14.18,19 L12.46,19 C12.326666,19 12.2133338,18.9533338 12.12,18.86 C12.0266662,18.7666662 11.98,18.653334 11.98,18.52 L11.98,9.92 L9.2,15.2 C9.0533326,15.4933348 8.8333348,15.64 8.54,15.64 L7.7,15.64 C7.4199986,15.64 7.1933342,15.4933348 7.02,15.2 L4.24,9.92 L4.24,18.52 C4.24,18.653334 4.1966671,18.7666662 4.11,18.86 C4.0233329,18.9533338 3.9066674,19 3.76,19 L2.04,19 Z M19.6860628,22.8 C19.5793956,22.8 19.4827299,22.7600004 19.3960628,22.68 C19.3093957,22.5999996 19.2660628,22.5066672 19.2660628,22.4 C19.2660628,22.3066662 19.2927292,22.2000006 19.3460628,22.08 L20.9260628,18.38 L17.0860628,9.32 C17.0327292,9.1999994 17.0060628,9.106667 17.0060628,9.04 C17.0193962,8.9199994 17.0660624,8.8166671 17.1460628,8.73 C17.2260632,8.6433329 17.3260622,8.6 17.4460628,8.6 L19.1060628,8.6 C19.346064,8.6 19.5193956,8.7266654 19.6260628,8.98 L22.2860628,15.5 L24.9860628,8.98 C25.1193968,8.7266654 25.3060616,8.6 25.5460628,8.6 L27.1660628,8.6 C27.2860634,8.6 27.3860624,8.6399996 27.4660628,8.72 C27.5460632,8.8000004 27.5860628,8.8933328 27.5860628,9 C27.5860628,9.0933338 27.5593964,9.1999994 27.5060628,9.32 L21.8460628,22.42 C21.7393956,22.6733346 21.5527308,22.8 21.2860628,22.8 L19.6860628,22.8 Z M34.5581884,19 C34.4248544,19 34.3115222,18.9533338 34.2181884,18.86 C34.1248546,18.7666662 34.0781884,18.653334 34.0781884,18.52 L34.0781884,5.48 C34.0781884,5.3333326 34.1248546,5.2166671 34.2181884,5.13 C34.3115222,5.0433329 34.4248544,5 34.5581884,5 L36.4781884,5 C36.6248558,5 36.7415213,5.0433329 36.8281884,5.13 C36.9148555,5.2166671 36.9581884,5.3333326 36.9581884,5.48 L36.9581884,18.52 C36.9581884,18.653334 36.9148555,18.7666662 36.8281884,18.86 C36.7415213,18.9533338 36.6248558,19 36.4781884,19 L34.5581884,19 Z M40.5642512,19 C40.4309172,19 40.317585,18.9533338 40.2242512,18.86 C40.1309174,18.7666662 40.0842512,18.653334 40.0842512,18.52 L40.0842512,9.08 C40.0842512,8.9333326 40.1309174,8.8166671 40.2242512,8.73 C40.317585,8.6433329 40.4309172,8.6 40.5642512,8.6 L42.2242512,8.6 C42.3709186,8.6 42.4875841,8.6433329 42.5742512,8.73 C42.6609183,8.8166671 42.7042512,8.9333326 42.7042512,9.08 L42.7042512,9.9 C43.5175886,8.899995 44.6309108,8.4 46.0442512,8.4 C47.270924,8.4 48.2442476,8.799996 48.9642512,9.6 C49.6842548,10.400004 50.0442512,11.499993 50.0442512,12.9 L50.0442512,18.52 C50.0442512,18.653334 50.0009183,18.7666662 49.9142512,18.86 C49.8275841,18.9533338 49.7109186,19 49.5642512,19 L47.7642512,19 C47.6309172,19 47.517585,18.9533338 47.4242512,18.86 C47.3309174,18.7666662 47.2842512,18.653334 47.2842512,18.52 L47.2842512,13.02 C47.2842512,12.2466628 47.0942531,11.6433355 46.7142512,11.21 C46.3342493,10.7766645 45.7909214,10.56 45.0842512,10.56 C44.4042478,10.56 43.8575866,10.7799978 43.4442512,11.22 C43.0309158,11.6600022 42.8242512,12.2599962 42.8242512,13.02 L42.8242512,18.52 C42.8242512,18.653334 42.7809183,18.7666662 42.6942512,18.86 C42.6075841,18.9533338 42.4909186,19 42.3442512,19 L40.5642512,19 Z M56.790314,19.2 C55.7769756,19.2 54.9303174,19.0466682 54.250314,18.74 C53.5703106,18.4333318 53.0669823,18.0766687 52.740314,17.67 C52.4136457,17.2633313 52.250314,16.9133348 52.250314,16.62 C52.250314,16.486666 52.2936469,16.3800004 52.380314,16.3 C52.4669811,16.2199996 52.5703134,16.18 52.690314,16.18 L54.330314,16.18 C54.4369812,16.18 54.5303136,16.2333328 54.610314,16.34 C54.676981,16.3933336 54.8269795,16.519999 55.060314,16.72 C55.2936485,16.920001 55.5603125,17.0766661 55.860314,17.19 C56.1603155,17.3033339 56.4903122,17.36 56.850314,17.36 C57.38365,17.36 57.816979,17.2566677 58.150314,17.05 C58.483649,16.8433323 58.650314,16.5466686 58.650314,16.16 C58.650314,15.893332 58.5736481,15.6766675 58.420314,15.51 C58.2669799,15.3433325 57.9936493,15.1900007 57.600314,15.05 C57.2069787,14.9099993 56.6169846,14.7533342 55.830314,14.58 C54.696975,14.3399988 53.8603167,13.9733358 53.320314,13.48 C52.7803113,12.9866642 52.510314,12.3333374 52.510314,11.52 C52.510314,10.986664 52.6703124,10.4833357 52.990314,10.01 C53.3103156,9.5366643 53.7869775,9.1500015 54.420314,8.85 C55.0536505,8.5499985 55.8103096,8.4 56.690314,8.4 C57.5969852,8.4 58.3769774,8.5433319 59.030314,8.83 C59.6836506,9.1166681 60.1803123,9.459998 60.520314,9.86 C60.8603157,10.260002 61.030314,10.6133318 61.030314,10.92 C61.030314,11.0400006 60.9869811,11.1433329 60.900314,11.23 C60.8136469,11.3166671 60.7103146,11.36 60.590314,11.36 L59.090314,11.36 C58.9436466,11.36 58.8303144,11.3066672 58.750314,11.2 C58.6569802,11.133333 58.5069817,11.0100009 58.300314,10.83 C58.0936463,10.6499991 57.8636486,10.5066672 57.610314,10.4 C57.3569794,10.2933328 57.0503158,10.24 56.690314,10.24 C56.1969782,10.24 55.816982,10.3466656 55.550314,10.56 C55.283646,10.7733344 55.150314,11.0533316 55.150314,11.4 C55.150314,11.6400012 55.2136467,11.8399992 55.340314,12 C55.4669813,12.1600008 55.7236454,12.3099993 56.110314,12.45 C56.4969826,12.5900007 57.0769768,12.7333326 57.850314,12.88 C60.250326,13.346669 61.450314,14.3933252 61.450314,16.02 C61.450314,16.9666714 61.0403181,17.7333304 60.220314,18.32 C59.4003099,18.9066696 58.256988,19.2 56.790314,19.2 Z M64.1363768,6.9 C64.0030428,6.9 63.8897106,6.8533338 63.7963768,6.76 C63.703043,6.6666662 63.6563768,6.553334 63.6563768,6.42 L63.6563768,4.96 C63.6563768,4.8133326 63.703043,4.6933338 63.7963768,4.6 C63.8897106,4.5066662 64.0030428,4.46 64.1363768,4.46 L65.9763768,4.46 C66.1230442,4.46 66.243043,4.5066662 66.3363768,4.6 C66.4297106,4.6933338 66.4763768,4.8133326 66.4763768,4.96 L66.4763768,6.42 C66.4763768,6.553334 66.4263773,6.6666662 66.3263768,6.76 C66.2263763,6.8533338 66.1097108,6.9 65.9763768,6.9 L64.1363768,6.9 Z M64.2163768,19 C64.0830428,19 63.9697106,18.9533338 63.8763768,18.86 C63.783043,18.7666662 63.7363768,18.653334 63.7363768,18.52 L63.7363768,9.08 C63.7363768,8.9333326 63.783043,8.8166671 63.8763768,8.73 C63.9697106,8.6433329 64.0830428,8.6 64.2163768,8.6 L65.9163768,8.6 C66.0497108,8.6 66.163043,8.6466662 66.2563768,8.74 C66.3497106,8.8333338 66.3963768,8.946666 66.3963768,9.08 L66.3963768,18.52 C66.3963768,18.653334 66.3497106,18.7666662 66.2563768,18.86 C66.163043,18.9533338 66.0497108,19 65.9163768,19 L64.2163768,19 Z M73.9824396,23.4 C72.795767,23.4 71.8357766,23.2033353 71.1024396,22.81 C70.3691026,22.4166647 69.8491078,21.9666692 69.5424396,21.46 C69.2357714,20.9533308 69.0824396,20.5200018 69.0824396,20.16 C69.0824396,20.026666 69.1291058,19.9166671 69.2224396,19.83 C69.3157734,19.7433329 69.4291056,19.7 69.5624396,19.7 L71.3424396,19.7 C71.4624402,19.7 71.5657725,19.7299997 71.6524396,19.79 C71.7391067,19.8500003 71.809106,19.9599992 71.8624396,20.12 C72.009107,20.4666684 72.2291048,20.7633321 72.5224396,21.01 C72.8157744,21.2566679 73.2691032,21.38 73.8824396,21.38 C74.6824436,21.38 75.2691044,21.2033351 75.6424396,20.85 C76.0157748,20.4966649 76.2024396,19.8800044 76.2024396,19 L76.2024396,17.64 C75.482436,18.4933376 74.4624462,18.92 73.1424396,18.92 C71.755766,18.92 70.7124431,18.5000042 70.0124396,17.66 C69.3124361,16.8199958 68.9357732,15.6733406 68.8824396,14.22 L68.8624396,13.68 L68.8824396,13.14 C68.9357732,11.7133262 69.3157694,10.566671 70.0224396,9.7 C70.7291098,8.833329 71.7690994,8.4 73.1424396,8.4 C73.8491098,8.4 74.4691036,8.533332 75.0024396,8.8 C75.5357756,9.066668 75.9757712,9.4266644 76.3224396,9.88 L76.3224396,9.1 C76.3224396,8.9533326 76.3724391,8.8333338 76.4724396,8.74 C76.5724401,8.6466662 76.6891056,8.6 76.8224396,8.6 L78.4624396,8.6 C78.5957736,8.6 78.7091058,8.6466662 78.8024396,8.74 C78.8957734,8.8333338 78.9424396,8.9533326 78.9424396,9.1 L78.9624396,18.74 C78.9624396,20.2200074 78.5491104,21.3666626 77.7224396,22.18 C76.8957688,22.9933374 75.6491146,23.4 73.9824396,23.4 Z M73.9024396,16.8 C74.64911,16.8 75.2091044,16.5600024 75.5824396,16.08 C75.9557748,15.5999976 76.1624394,15.0133368 76.2024396,14.32 C76.215773,14.2133328 76.2224396,14.0000016 76.2224396,13.68 C76.2224396,13.3599984 76.215773,13.1466672 76.2024396,13.04 C76.1624394,12.3466632 75.9557748,11.7600024 75.5824396,11.28 C75.2091044,10.7999976 74.64911,10.56 73.9024396,10.56 C72.4624324,10.56 71.70244,11.4399912 71.6224396,13.2 L71.6024396,13.68 C71.6024396,15.7600104 72.3690986,16.8 73.9024396,16.8 Z M82.3485024,19 C82.2151684,19 82.1018362,18.9533338 82.0085024,18.86 C81.9151686,18.7666662 81.8685024,18.653334 81.8685024,18.52 L81.8685024,5.28 C81.8685024,5.1333326 81.9151686,5.0166671 82.0085024,4.93 C82.1018362,4.8433329 82.2151684,4.8 82.3485024,4.8 L84.1685024,4.8 C84.3151698,4.8 84.4318353,4.8433329 84.5185024,4.93 C84.6051695,5.0166671 84.6485024,5.1333326 84.6485024,5.28 L84.6485024,9.84 C85.4485064,8.8799952 86.521829,8.4 87.8685024,8.4 C89.0951752,8.4 90.0751654,8.8033293 90.8085024,9.61 C91.5418394,10.4166707 91.9085024,11.5133264 91.9085024,12.9 L91.9085024,18.52 C91.9085024,18.653334 91.8651695,18.7666662 91.7785024,18.86 C91.6918353,18.9533338 91.5751698,19 91.4285024,19 L89.6085024,19 C89.461835,19 89.3418362,18.9533338 89.2485024,18.86 C89.1551686,18.7666662 89.1085024,18.653334 89.1085024,18.52 L89.1085024,13.02 C89.1085024,12.2466628 88.9185043,11.6433355 88.5385024,11.21 C88.1585005,10.7766645 87.6151726,10.56 86.9085024,10.56 C86.228499,10.56 85.6818378,10.7799978 85.2685024,11.22 C84.855167,11.6600022 84.6485024,12.2599962 84.6485024,13.02 L84.6485024,18.52 C84.6485024,18.653334 84.6051695,18.7666662 84.5185024,18.86 C84.4318353,18.9533338 84.3151698,19 84.1685024,19 L82.3485024,19 Z M99.2945652,19 C98.0812258,19 97.1679016,18.6833365 96.5545652,18.05 C95.9412288,17.4166635 95.6345652,16.4866728 95.6345652,15.26 L95.6345652,10.74 L94.0545652,10.74 C93.9212312,10.74 93.807899,10.6933338 93.7145652,10.6 C93.6212314,10.5066662 93.5745652,10.393334 93.5745652,10.26 L93.5745652,9.08 C93.5745652,8.946666 93.6212314,8.8333338 93.7145652,8.74 C93.807899,8.6466662 93.9212312,8.6 94.0545652,8.6 L95.6345652,8.6 L95.6345652,5.28 C95.6345652,5.1333326 95.6812314,5.0166671 95.7745652,4.93 C95.867899,4.8433329 95.9812312,4.8 96.1145652,4.8 L97.7745652,4.8 C97.9212326,4.8 98.0378981,4.8433329 98.1245652,4.93 C98.2112323,5.0166671 98.2545652,5.1333326 98.2545652,5.28 L98.2545652,8.6 L100.754565,8.6 C100.887899,8.6 101.001231,8.6466662 101.094565,8.74 C101.187899,8.8333338 101.234565,8.946666 101.234565,9.08 L101.234565,10.26 C101.234565,10.393334 101.187899,10.5066662 101.094565,10.6 C101.001231,10.6933338 100.887899,10.74 100.754565,10.74 L98.2545652,10.74 L98.2545652,15.04 C98.2545652,15.6133362 98.3545642,16.0466652 98.5545652,16.34 C98.7545662,16.6333348 99.0812296,16.78 99.5345652,16.78 L100.934565,16.78 C101.081233,16.78 101.197898,16.8233329 101.284565,16.91 C101.371232,16.9966671 101.414565,17.1133326 101.414565,17.26 L101.414565,18.52 C101.414565,18.653334 101.371232,18.7666662 101.284565,18.86 C101.197898,18.9533338 101.081233,19 100.934565,19 L99.2945652,19 Z M107.400628,19.2 C106.38729,19.2 105.540631,19.0466682 104.860628,18.74 C104.180625,18.4333318 103.677296,18.0766687 103.350628,17.67 C103.02396,17.2633313 102.860628,16.9133348 102.860628,16.62 C102.860628,16.486666 102.903961,16.3800004 102.990628,16.3 C103.077295,16.2199996 103.180627,16.18 103.300628,16.18 L104.940628,16.18 C105.047295,16.18 105.140628,16.2333328 105.220628,16.34 C105.287295,16.3933336 105.437294,16.519999 105.670628,16.72 C105.903963,16.920001 106.170627,17.0766661 106.470628,17.19 C106.77063,17.3033339 107.100626,17.36 107.460628,17.36 C107.993964,17.36 108.427293,17.2566677 108.760628,17.05 C109.093963,16.8433323 109.260628,16.5466686 109.260628,16.16 C109.260628,15.893332 109.183962,15.6766675 109.030628,15.51 C108.877294,15.3433325 108.603963,15.1900007 108.210628,15.05 C107.817293,14.9099993 107.227299,14.7533342 106.440628,14.58 C105.307289,14.3399988 104.470631,13.9733358 103.930628,13.48 C103.390625,12.9866642 103.120628,12.3333374 103.120628,11.52 C103.120628,10.986664 103.280626,10.4833357 103.600628,10.01 C103.92063,9.5366643 104.397292,9.1500015 105.030628,8.85 C105.663965,8.5499985 106.420624,8.4 107.300628,8.4 C108.207299,8.4 108.987291,8.5433319 109.640628,8.83 C110.293965,9.1166681 110.790626,9.459998 111.130628,9.86 C111.47063,10.260002 111.640628,10.6133318 111.640628,10.92 C111.640628,11.0400006 111.597295,11.1433329 111.510628,11.23 C111.423961,11.3166671 111.320629,11.36 111.200628,11.36 L109.700628,11.36 C109.553961,11.36 109.440628,11.3066672 109.360628,11.2 C109.267294,11.133333 109.117296,11.0100009 108.910628,10.83 C108.70396,10.6499991 108.473963,10.5066672 108.220628,10.4 C107.967293,10.2933328 107.66063,10.24 107.300628,10.24 C106.807292,10.24 106.427296,10.3466656 106.160628,10.56 C105.89396,10.7733344 105.760628,11.0533316 105.760628,11.4 C105.760628,11.6400012 105.823961,11.8399992 105.950628,12 C106.077295,12.1600008 106.333959,12.3099993 106.720628,12.45 C107.107297,12.5900007 107.687291,12.7333326 108.460628,12.88 C110.86064,13.346669 112.060628,14.3933252 112.060628,16.02 C112.060628,16.9666714 111.650632,17.7333304 110.830628,18.32 C110.010624,18.9066696 108.867302,19.2 107.400628,19.2 Z" id="My-Insights" fill="#2B2B2B"></path>
                    <rect id="Rectangle" fill="#fcb853" x="62" y="4" width="6" height="4"></rect>
                </g>
            </g>
        </g>
    </g>
</svg>
